<mxfile host="app.diagrams.net" agent="Mozilla/5.0 (Macintosh; Intel Mac OS X 10_15_7) AppleWebKit/537.36 (KHTML, like Gecko) Chrome/131.0.0.0 Safari/537.36" version="26.0.4">
  <diagram name="Page-0" id="Page-0">
    <mxGraphModel dx="1122" dy="731" grid="1" gridSize="10" guides="1" tooltips="1" connect="1" arrows="1" fold="1" page="1" pageScale="1" pageWidth="1060.45" pageHeight="995.89" math="0" shadow="0">
      <root>
        <mxCell id="0" />
        <mxCell id="1" parent="0" />
        <mxCell id="2" style="vsdxID=1;fillColor=none;gradientColor=none;image;aspect=fixed;image=data:image/png,/9j/4AAQSkZJRgABAQAAAQABAAD/2wBDAAgGBgcGBQgHBwcJCQgKDBQNDAsLDBkSEw8UHRofHh0aHBwgJC4nICIsIxwcKDcpLDAxNDQ0Hyc5PTgyPC4zNDL/2wBDAQkJCQwLDBgNDRgyIRwhMjIyMjIyMjIyMjIyMjIyMjIyMjIyMjIyMjIyMjIyMjIyMjIyMjIyMjIyMjIyMjIyMjL/wAARCALvAyADASIAAhEBAxEB/8QAHwAAAQUBAQEBAQEAAAAAAAAAAAECAwQFBgcICQoL/8QAtRAAAgEDAwIEAwUFBAQAAAF9AQIDAAQRBRIhMUEGE1FhByJxFDKBkaEII0KxwRVS0fAkM2JyggkKFhcYGRolJicoKSo0NTY3ODk6Q0RFRkdISUpTVFVWV1hZWmNkZWZnaGlqc3R1dnd4eXqDhIWGh4iJipKTlJWWl5iZmqKjpKWmp6ipqrKztLW2t7i5usLDxMXGx8jJytLT1NXW19jZ2uHi4+Tl5ufo6erx8vP09fb3+Pn6/8QAHwEAAwEBAQEBAQEBAQAAAAAAAAECAwQFBgcICQoL/8QAtREAAgECBAQDBAcFBAQAAQJ3AAECAxEEBSExBhJBUQdhcRMiMoEIFEKRobHBCSMzUvAVYnLRChYkNOEl8RcYGRomJygpKjU2Nzg5OkNERUZHSElKU1RVVldYWVpjZGVmZ2hpanN0dXZ3eHl6goOEhYaHiImKkpOUlZaXmJmaoqOkpaanqKmqsrO0tba3uLm6wsPExcbHyMnK0tPU1dbX2Nna4uPk5ebn6Onq8vP09fb3+Pn6/9oADAMBAAIRAxEAPwD3+iiigAooooAKKKKACiiigAooooAKKKKACiiigAooooAKKKKACiiigAooooAKKKKACiiigAooooAKKKKACiiigAooooAKKKKACiiigAooooAKKKKAOP8ACvhbw9P4Q0SabQdLklksIHd3s4yzMY1JJJHJJrX/AOER8Nf9C7pP/gFH/wDE0eEP+RK0H/sHW/8A6LWtmgDG/wCER8Nf9C7pP/gFH/8AE0f8Ij4a/wChd0n/AMAo/wD4mtmigDG/4RHw1/0Luk/+AUf/AMTR/wAIj4a/6F3Sf/AKP/4mtmigDG/4RHw1/wBC7pP/AIBR/wDxNH/CI+Gv+hd0n/wCj/8Aia2aKAMb/hEfDX/Qu6T/AOAUf/xNH/CI+Gv+hd0n/wAAo/8A4mtmigDG/wCER8Nf9C7pP/gFH/8AE0f8Ij4a/wChd0n/AMAo/wD4muY+JerXOkX3hyWDWU0lGuJ1kuZUMkYHlEjcgI3c9M9656Lx74qm0vUtTuJbeyitLGybyfsm9vOnUfMSWACjrzxzyeKAPSP+ER8Nf9C7pP8A4BR//E0f8Ij4a/6F3Sf/AACj/wDia8th+IXiy90b7TBeWUclpZXdzMTbbxN5MwRQMNhdynqM+1GoeN9bufF0RXUIIWtbi72aX5TqUVLctG8rA/OrE5xjtx0NAHqX/CI+Gv8AoXdJ/wDAKP8A+Jo/4RHw1/0Luk/+AUf/AMTWH8NPE994n0S6m1GRZZ4Ljy/MjjVUIKqflKkhup5GD6jNdrQBjf8ACI+Gv+hd0n/wCj/+Jo/4RHw1/wBC7pP/AIBR/wDxNbNFAGN/wiPhr/oXdJ/8Ao//AImj/hEfDX/Qu6T/AOAUf/xNbNFAGN/wiPhr/oXdJ/8AAKP/AOJo/wCER8Nf9C7pP/gFH/8AE1s0UAY3/CI+Gv8AoXdJ/wDAKP8A+Jo/4RHw1/0Luk/+AUf/AMTWzRQBz974S8NrYXLL4e0kERMQRZR8cH/Zq/oH/IuaX/16Rf8AoAqzf/8AIOuv+uT/AMjVbQP+Rb0v/r0i/wDQBQBo0UUUAFFFFABRRRQAUUUUAFFFFABRRRQAUUUUAFFFFABRRRQAUUUUAFFFFABRRRQAUUUUAFFFFABRRRQAUUUUAFFFFABRRRQAUUUUAFFFFABRRRQAUUUUAFFFFABRRRQAUUUUAFFFFABRRRQAUUUUAFFFFABRRRQAUUUUAFFFFABRRRQAUUUUAFFFFABRRRQAUUUUAYnhCRB4K0H51/5B1v3/AOma1s+Yn99fzrkvCnhjw/P4P0SabQtMklksIGd3tIyzExqSSccmtf8A4RLw3/0L+lf+AUf+FAGt5if31/OjzE/vr+dZJ8J+G8f8i/pX/gFH/hWR4U8L+H5vB+iSy6Fpkkj2EDM7WkZLExrkk45NAHW+Yn99fzo8xP76/nWT/wAIl4b/AOhf0r/wCj/wo/4RLw3/ANC/pX/gFH/hQBreYn99fzo8xP76/nWT/wAIl4b/AOhf0r/wCj/wo/4RLw3/ANC/pX/gFH/hQBreYn99fzo8xP76/nWT/wAIl4b/AOhf0r/wCj/wo/4RLw3/ANC/pX/gFH/hQBql4yMFlI+tBeMggspB96yv+ES8N/8AQv6V/wCAUf8AhR/wiXhv/oX9K/8AAKP/AAoA1vMj/vr+dJvjyTuXJ75rK/4RLw3/ANC/pX/gFH/hR/wiXhv/AKF/Sv8AwCj/AMKANUPGowGQD0BFL5if31/Osn/hEvDf/Qv6V/4BR/4Uf8Il4b/6F/Sv/AKP/CgDW8xP76/nR5if31/Osn/hEvDf/Qv6V/4BR/4Uf8Il4b/6F/Sv/AKP/CgDW8xP76/nR5if31/Osn/hEvDf/Qv6V/4BR/4Uf8Il4b/6F/Sv/AKP/CgDW8xP76/nR5if31/Osn/hEvDf/Qv6V/4BR/4Uf8Il4b/6F/Sv/AKP/CgDW8xP76/nR5if31/Osn/hEvDf/Qv6V/4BR/4Uf8Il4b/6F/Sv/AKP/CgC9fyIdOufnX/VP39jUGgf8i3pf/XpF/6AKz9R8KeHF0y7ZdA0oEQuQRZx8fKfar/h3/kWdK/684f/AEAUAaVFFFABRRRQAUUUUAFFFFABRRRQAUUUUAFFFFABRRRQAUUUUAFFFFABRRRQAUUUUAFFFFABRRRQAUUUUAFFFFABRRRQAUUUUAFFFFABRRRQAUUUUAFFFFABRRRQAUUUUAFFFFABRRRQAUUUUAFFFFABRRRQAUUUUAFFFFABRRRQAUUUUAFFFFABRRRQAUUUUAFFFFAHnGuy3EPwHtntZJUn/sy0CtFIUbkRjhhyPrXMavpvjnQ4dPj0658q9vNQkays3vpLlYUFu2VaRsbiSCwB4BxXqHhC4hXwVoQM0YI0+3yCw/55rWz9pg/57x/99igDn/Ad1Y3ng2xlsJbuRdpWX7ZIXmWUH51cn+INnjp6cVSSaS3+DMU0JIkj0FWXBIORAMdOa603MGP9fH/32KwPDiWd74A0a1uJV8uTTbdXCylD/q17ggigDzaXxRrV94l0exl1IwJDepGNOjiZZGj+yFhK0mfmVmY8eoHcGud8O+Jda0qxe+06/N1OmjNJIBPPcKk3mIAZhJwrYLABK9q/4RPw3nP73P8A2EJv/i6X/hFPDn/Tb/wYzf8AxdAHEaj428S6R40t9FkvYLlU2w3H+iCPcxhZ96/MWxkAenbk1XTxz4rttOjF/f2qfaoLC5N/9i+WySYsH3Ln5sbRyccmu+/4RPw3nP73/wAGE3/xdB8J+GyMHzSP+whN/wDF0AU/hhd3V94KjuLy5e5me6uCZX3DcPNbBAbkD0HYcV2NZ+nW2naVbm3tJQsZYth5zIc/ViTVv7TB/wA94/8AvsUAS0VF9pg/57x/99ij7TB/z3j/AO+xQBLRUX2mD/nvH/32KPtMH/PeP/vsUAS0VF9pg/57x/8AfYo+0wf894/++xQBLRUX2mD/AJ7x/wDfYo+0wf8APeP/AL7FAEtFRfaYP+e8f/fYo+0wf894/wDvsUAS0VF9pg/57x/99ij7TB/z3j/77FAEtFRfaYP+e8f/AH2KPtMH/PeP/vsUARal/wAgq8/64P8A+gmq/h3/AJFnSf8Arzh/9AFSalcQHS7sCaP/AFD/AMQ/umo/Dv8AyLOk/wDXnD/6AKANKiiigAooooAKKKKACiiigAooooAKKKKACiiigAooooAKKKKACiiigAooooAKKKKACiiigAooooAKKKKACiiigAooooAKKKKACiiigAooooAKKKKACiiigAooooAKKKKACiiigAooooAKKKKACiiigAooooAKKKKACiiigAooooAKKKKACiiigAooooAKKKKACiiigDkfCnhrQZ/B+iTS6Jpskr2EDO72kZLExqSSccmtf/hFfDv/AEANL/8AAOP/AApng/8A5EnQf+wdb/8Aota2qAMg+FfDuP8AkAaX/wCAcf8AhWR4U8M6BN4O0SWXQ9NeR9PgZna0jJYmNcknHJrrj0rkrO9uNO+Elpe2hAuYNEjki3LkbhCCOO/NAGt/wivh3/oAaX/4Bx/4Uf8ACK+Hf+gBpf8A4Bx/4VxOteKtc0a3vLN9RWS7hnPlXBgjjEg8hZNh3cfebAABZgMDnmmt4k8S3ytd2mqww28rXHlotorhBHAsowx65Ykc9vfmgDuP+EV8O/8AQA0v/wAA4/8ACj/hFfDv/QA0v/wDj/wrjdL8Y61f+JXtp5re1gw++FgpaGMQhxNj733j1PykcDmt3xPrep6RZadcWDrcrdqbVSIsgzyAeTJx0XdnI6YPtQBq/wDCK+Hf+gBpf/gHH/hR/wAIr4d/6AGl/wDgHH/hXB6h411qHV76xtb6IsC0MfmxJmORZY0zsB3chnPzEZHIwBUmrazq80Gp2La2q3sNwkK2y2+HRVliCzErg4bOSDwQcDoaAO4/4RXw7/0ANL/8A4/8KP8AhFfDv/QA0v8A8A4/8K4TWfGms6PA8DXqvc2s9wDI8KILhI2TAOe+GOQgzxngA1o/2pq13eWzT3oaCW8vPIWKLAUQo3lgkcvn73vt6UAdV/wivh3/AKAGl/8AgHH/AIUf8Ir4d/6AGl/+Acf+FeaRai/9kx251uxFtbyxtJqLXFx5N0xhYmMndlHBAJGRnI4z8tdp4avrq5u73fFJBHJptndeRI5YwSurhkyeeiIfqc9TQBr/APCK+Hf+gBpf/gHH/hR/wivh3/oAaX/4Bx/4V5U15rFl4Y0/Tri5vpBJo13d2935jbmU25yjN13o54J7Fe4Ndn4budRi8aPo+oSTyPY6btWZydtxGZB5cnoWwCp75U+tAHRf8Ir4d/6AGl/+Acf+FH/CK+Hf+gBpf/gHH/hWvRQBkf8ACK+Hf+gBpf8A4Bx/4Uf8Ir4d/wCgBpf/AIBx/wCFa9FAGR/wivh3/oAaX/4Bx/4Uf8Ir4d/6AGl/+Acf+Fa9FAGR/wAIr4d/6AGl/wDgHH/hR/wivh3/AKAGl/8AgHH/AIVr0UAc/qPhbw8umXbLoOlgiFyCLOP+6far3h3/AJFnSv8Arzh/9AFWNS/5BV5/1wf/ANBNV/Dv/Is6T/15w/8AoAoA0qKKKACiiigAooooAKKKKACiiigAooooAKKKKACiiigAooooAKKKKACiiigAooooAKKKKACiiigAooooAKKKKACiiigAooooAKKKKACiiigAooooAKKKKACiiigAooooAKKKKACiiigAooooAKKKKACiiigAooooAKKKKACiiigAooooAKKKKACiiigAooooAKKKKAMXwf8A8iToP/YOt/8A0WtbVc/4QvLVfBehA3MII0+3BBccfu1rZ+22n/P1D/38FAE56VjeEP8AkStB/wCwdb/+i1rS+22n/P1D/wB/BSLd2aqFW4gCgYADjAFAFiioPttp/wA/UP8A38FH220/5+of+/goAnwM5xzRUH220/5+of8Av4KPttp/z9Q/9/BQBPiioPttp/z9Q/8AfwUfbbT/AJ+of+/goAnxUM9pBctC00YZoZBJGe6sOMj8CaT7baf8/UP/AH8FH220/wCfqH/v4KAJsDGMVFDawQTTyxxhZJ2Dyt3YgAD9ABSfbbX/AJ+Yf+/go+22n/P1D/38FAE9FQfbbT/n6h/7+Cj7baf8/UP/AH8FAE9FQfbbT/n6h/7+Cj7baf8AP1D/AN/BQBPRUH220/5+of8Av4KPttp/z9Q/9/BQBPRUH220/wCfqH/v4KPttp/z9Q/9/BQBPRUH220/5+of+/go+22n/P1D/wB/BQAzUv8AkFXn/XB//QTVfw7/AMizpP8A15w/+gCl1K9tTpd2Bcw/6h/+Wg/umk8O/wDIsaT/ANecP/oAoA0qKKKACiiigAooooAKKKKACiiigAooooAKKKKACiiigAooooAKKKKACiiigAooooAKKKKACiiigAooooAKKKKACiiigAooooAKKKKACiiigAooooAKKKKACiiigAooooAKKKKACiiigAooooAKKKKACiiigAooooAKKKKACiiigAooooAKKKKACiiigAooooAKKKKAMs+GdBJJOiaaSf8Ap0j/AMKT/hGdA/6Aem/+Akf+FatFAGV/wjOgf9APTf8AwEj/AMKP+EZ0D/oB6b/4CR/4Vq0UAZX/AAjOgf8AQD03/wABI/8ACj/hGdA/6Aem/wDgJH/hWrRQBlf8IzoH/QD03/wEj/wo/wCEZ0D/AKAem/8AgJH/AIVq0UAZX/CM6B/0A9N/8BI/8KP+EZ0D/oB6b/4CR/4Vq0UAZX/CM6B/0A9N/wDASP8Awo/4RnQP+gHpv/gJH/hWrRQB5/deFh/wnFpHHb6AsDWdw6xnRwcKJIeD+8GW54bAxzxzXSXujeFtOs5bu90vSLe3iUs8kltGFUD3xSz/API9af8A9g26/wDRsFW9csP7T0K/sljjd57eREEg+XcVIH60AQReHfDs0SSx6LpjI6hlItE5B6dqd/wjOgf9APTf/ASP/CrunwvbabawSY3xwojYPGQADVigDK/4RnQP+gHpv/gJH/hR/wAIzoH/AEA9N/8AASP/AArVooAyv+EZ0D/oB6b/AOAkf+FH/CM6B/0A9N/8BI/8K1aKAMr/AIRnQP8AoB6b/wCAkf8AhR/wjOgf9APTf/ASP/CtWigDK/4RnQP+gHpv/gJH/hR/wjOgf9APTf8AwEj/AMK1aKAMr/hGNA/6Aemf+Akf+FaiqqIqIoVVGAAMAClooAKKKKACiiigAooooAKKKKACiiigAooooAKKKKACiiigAooooAKKKKACiiigAooooAKKKKACiiigAooooAKKKKACiiigAooooAKKKKACiiigAooooAKKKKACiiigAooooAKKKKACiiigAooooAKKKKACiiigAooooAKKKKACiiigAooooAKKKKACiiigAooooAKKKKACiiigAooooAKKKKACiiigAooooAKKKKAMSf8A5HrT/wDsG3X/AKNgrbrEn/5HrT/+wbdf+jYK26ACiiigAooooAKKKKACiiigAooooAKKKKACiiigAooooAKKKKACiiigAooooAKKKKACiiigAooooAKKKKACiiigAooooAKKKKACiiigAooooAKKKKACiiigAoqt/aNj/wA/tv8A9/V/xo/tGx/5/bf/AL+r/jQBZoqt/aNj/wA/tv8A9/V/xo/tGx/5/bf/AL+r/jQBZoqt/aNj/wA/tv8A9/V/xo/tGx/5/bf/AL+r/jQBZoqt/aNj/wA/tv8A9/V/xo/tGx/5/bf/AL+r/jQBZoqt/aNj/wA/tv8A9/V/xo/tGx/5/bf/AL+r/jQBZoqt/aNj/wA/tv8A9/V/xo/tGx/5/bf/AL+r/jQBZoqt/aNj/wA/tv8A9/V/xo/tGx/5/bf/AL+r/jQBZoqt/aNj/wA/tv8A9/V/xo/tGx/5/bf/AL+r/jQBZoqt/aNj/wA/tv8A9/V/xo/tGx/5/bf/AL+r/jQBZoqt/aNj/wA/tv8A9/V/xo/tGx/5/bf/AL+r/jQBZoqt/aNj/wA/tv8A9/V/xo/tGx/5/bf/AL+r/jQBZoqt/aNj/wA/tv8A9/V/xo/tGx/5/bf/AL+r/jQBZoqt/aNj/wA/tv8A9/V/xqyCCAQcg0AFFFFABRRRQAUUUUAFFFFABRRRQAUUUUAFFFFAHN2epeItSjluLS10tYBcTQoJZpNxEcrR5OFxztz+NWN/ir/nho3/AH+l/wDiKXwn/wAgST/r/vf/AEplrboAw9/ir/nho3/f6X/4ijf4q/54aN/3+l/+IrUa/s0Yq13ArA4IMgBB/Ok/tGx/5/bf/v6v+NAGZv8AFX/PDRv+/wBL/wDEUb/FX/PDRv8Av9L/APEVp/2jY/8AP7b/APf1f8aP7Rsf+f23/wC/q/40AZm/xV/zw0b/AL/S/wDxFG/xV/zw0b/v9L/8RWn/AGjY/wDP7b/9/V/xo/tGx/5/bf8A7+r/AI0AZm/xV/zw0b/v9L/8RRv8Vf8APDRv+/0v/wARWn/aNj/z+2//AH9X/Gj+0bH/AJ/bf/v6v+NAGZv8Vf8APDRv+/0v/wARRv8AFX/PDRv+/wBL/wDEVp/2jY/8/tv/AN/V/wAaP7Rsf+f23/7+r/jQBmb/ABV/zw0b/v8AS/8AxFG/xV/zw0b/AL/S/wDxFaf9o2P/AD+2/wD39X/Gj+0bH/n9t/8Av6v+NAGXZWOsS+IItS1L7CiQ2skCJbM7Fi7xtk7gMY8v9a3arf2jY/8AP7b/APf1f8aP7Rsf+f23/wC/q/40AWaKrf2jY/8AP7b/APf1f8aP7Rsf+f23/wC/q/40AWaKrf2jY/8AP7b/APf1f8aP7Rsf+f23/wC/q/40AWaKrf2jY/8AP7b/APf1f8aP7Rsf+f23/wC/q/40AWaKrf2jY/8AP7b/APf1f8aP7Rsf+f23/wC/q/40AWaKrf2jY/8AP7b/APf1f8aP7Rsf+f23/wC/q/40AWaKrf2jY/8AP7b/APf1f8anR1kQOjBlYZDKcg0AOooooAKKKKACiiigAooooAKKKKACiiigAooooAKKKKACiiigAooooAKKKKACiiigAooooAKKKKACiiigAooooA5jwpoulSeDtDd9MsmdtPgLM0Ckk+WvPStf+wtI/wCgVY/+A6f4VW8I/wDIl6F/2Drf/wBFrWzQBn/2FpH/AECrH/wHT/Cj+wtI/wCgVY/+A6f4VoUUAZ/9haR/0CrH/wAB0/wo/sLSP+gVY/8AgOn+FaFFAGf/AGFpH/QKsf8AwHT/AAo/sLSP+gVY/wDgOn+FaFFAGf8A2FpH/QKsf/AdP8KP7C0j/oFWP/gOn+FaFFAGf/YWkf8AQKsf/AdP8KP7C0j/AKBVj/4Dp/hTPEd3dWHhvUruxKC6htneIujOoYA4JVQSR9BXj8/xC8ZHQLKWKcxsZ7hJL6W1Uo7IqGNBtUgqxZuQoJ24HIoA9j/sLSP+gVY/+A6f4Uf2FpH/AECrH/wHT/CvHr/xT4ouvFdo7yO17Z3Fy0ejx2rqo22jNGxkwC4dj0Pt0xUX/CwPGieGmu2voGIuUXzha4k5iLNFygjyGx784zmgD2b+wtI/6BVj/wCA6f4Uf2FpH/QKsf8AwHT/AAqXSrmS80izuZVdZJoEdldNjAlQTkdvpVugDP8A7C0j/oFWP/gOn+FH9haR/wBAqx/8B0/wrQooAz/7C0j/AKBVj/4Dp/hR/YWkf9Aqx/8AAdP8K0KKAM/+wtI/6BVj/wCA6f4Uf2FpH/QKsf8AwHT/AArQooAz/wCwtI/6BVj/AOA6f4Uf2FpH/QKsf/AdP8K0KKAMTVdE0ldHvWXS7IEW8hBFunHyn2q/pH/IFsP+veP/ANBFGr/8gW+/695P/QTRpH/IFsf+veP/ANBFAFyiiigAooooAKKKKACiiigAooooAKKKKACiiigDE8J/8gST/r/vf/SmWtusTwn/AMgST/r/AL3/ANKZa26AOZ8N6TptxpUss+n2ksjX15ud4VYn/SZOpIrW/sLSP+gVY/8AgOn+FVfCv/IFk/6/rz/0plraoAz/AOwtI/6BVj/4Dp/hR/YWkf8AQKsf/AdP8K0KKAM/+wtI/wCgVY/+A6f4Uf2FpH/QKsf/AAHT/CtCigDP/sLSP+gVY/8AgOn+FH9haR/0CrH/AMB0/wAK0KKAM/8AsLSP+gVY/wDgOn+FH9haR/0CrH/wHT/Cs/xtqV/pHhK9vdNO25jCASeX5nlKWAZ9n8W0EnHtXn+ieLfFmr6rb2tnqouoEuL7dMbAIbhIViKLggbCxZhn3+lAHqH9haR/0CrH/wAB0/wo/sLSP+gVY/8AgOn+FeTab4/8TLEtzPfNd2aNZy3839neX9iZ5Ss0GMZYBec8ketQ33xF8RGCOWHVTamSK8mtkOneY1wUuCkMeMZXcuBn+tAHr/8AYWkf9Aqx/wDAdP8ACj+wtI/6BVj/AOA6f4V5bYXFvP4vuD4g/tuHxO2qRmzitDIFW3KqQB/yzMX392eevfFZtp4r8T6VYWFrbXM0TpGr2tpJaGU6k7XLq6FyMptXHTHr0oA9k/sLSP8AoFWP/gOn+FH9haR/0CrH/wAB0/wrxc3viaKZp7XW7v7bp/8AbcrGW238RtGyRlTx8wwQecBsCtT/AITrxlJ4iuIl8iCMW7PHayWrsCv2feJRtUsfn464wMYzQB6p/YWkf9Aqx/8AAdP8KP7C0j/oFWP/AIDp/hXNfDPxDqfiHQ7qXVZHlnhuPLE3lKquNqn5SoAYAk9gR0PIrtaAM/8AsLSP+gVY/wDgOn+FH9haR/0CrH/wHT/CtCigDP8A7C0j/oFWP/gOn+FH9haR/wBAqx/8B0/wrQooAz/7C0j/AKBVj/4Dp/hR/YWkf9Aqx/8AAdP8K0KKAKH9haR/0CrH/wAB0/wqp4SVU8K6eqqFUR4AAwBya2qxvCn/ACK9h/uH+ZoA2aKKKACiiigAooooAKKKKACiiigAooooAKKKKACiiigAooooAKKKKACiiigAooooAKKKKACiiigAooooAKKKKAOc8J6nYJ4N0NWvrZWGn24IMqgg+WvvWx/aunf8/wDa/wDf5f8AGsXwppOmyeDtDd9PtGZtPgJYwqST5a+1a/8AY2l/9A2z/wC/C/4UAP8A7V07/n/tf+/y/wCNH9q6d/z/ANr/AN/l/wAail0bSxE5Gm2f3T/ywX/CsrwrpGmyeD9Ed9PtGZrCAljCpJPlr7UAbX9q6d/z/wBr/wB/l/xo/tXTv+f+1/7/AC/40z+xtL/6Btn/AN+F/wAKP7G0v/oG2f8A34X/AAoAf/aunf8AP/a/9/l/xo/tXTv+f+1/7/L/AI0z+xtL/wCgbZ/9+F/wo/sbS/8AoG2f/fhf8KAH/wBq6d/z/wBr/wB/l/xo/tXTv+f+1/7/AC/40z+xtL/6Btn/AN+F/wAKP7G0v/oG2f8A34X/AAoAf/aunf8AP/a/9/l/xo/tXTv+f+1/7/L/AI0z+xtL/wCgbZ/9+F/wo/sbS/8AoG2f/fhf8KAH/wBq6d/z/wBr/wB/l/xo/tXTv+f+1/7/AC/40z+xtL/6Btn/AN+F/wAKP7G0v/oG2f8A34X/AAoAf/aunf8AP/a/9/l/xo/tXTv+f+1/7/L/AI0z+xtL/wCgbZ/9+F/wo/sbS/8AoG2f/fhf8KAH/wBq6d/z/wBr/wB/l/xo/tXTv+f+1/7/AC/40z+xtL/6Btn/AN+F/wAKP7G0v/oG2f8A34X/AAoAf/aunf8AP/a/9/l/xo/tXTv+f+1/7/L/AI0z+xtL/wCgbZ/9+F/wo/sbS/8AoG2f/fhf8KAH/wBq6d/z/wBr/wB/l/xo/tXTv+f+1/7/AC/40z+xtL/6Btn/AN+F/wAKP7G0v/oG2f8A34X/AAoAf/aunf8AP/a/9/l/xo/tXTv+f+1/7/L/AI0z+xtL/wCgbZ/9+F/wo/sbS/8AoG2f/fhf8KAK2q6np7aPfAX1sSbeTAEy/wB0+9W9I/5Atj/17x/+giqGsaPpi6HqDLp1mCLaQgiBf7p9qu6L/wAgLTv+vaP/ANBFAF6iiigAooooAKKKKACiiigAooooAKKKKAKOpaxp+j/ZP7QuVgF3cLbQlgcNIwJC5A46Hk8VNa31vetcLbybzbymGXgja4AJHPXgisrxLoI8QDTYJUR7aK5MlwrEglDFIny++XB/DNR+D9H1LRrC9h1W4jubiW8eVZkz86YVVZh2YhcntmgCbwn/AMgST/r/AL3/ANKZa26xPCf/ACBJP+v+9/8ASmWtugDnPDWoWUOkyxy3luji+vMq0qgj/SZe2a2P7V07/n/tf+/y/wCNYnhnTLCfSJJZrG2kka+vMs8Kkn/SZO5FbH9jaX/0DbP/AL8L/hQA/wDtXTv+f+1/7/L/AI0f2rp3/P8A2v8A3+X/ABpn9jaX/wBA2z/78L/hWL4V0nTZND3Pp9ox+13QyYF6C4kx2oA3f7V07/n/ALX/AL/L/jR/aunf8/8Aa/8Af5f8aZ/Y2l/9A2z/AO/C/wCFH9jaX/0DbP8A78L/AIUAP/tXTv8An/tf+/y/40f2rp3/AD/2v/f5f8aZ/Y2l/wDQNs/+/C/4Uf2Npf8A0DbP/vwv+FAEV9PoupWUtneXVnNbyjDo0wwR+BqLSl8P6JZfZNOmsreDcXKrMDlj1JJOST6mrX9jaX/0DbP/AL8L/hR/Y2l/9A2z/wC/C/4UAP8A7V07/n/tf+/y/wCNVjLoh1NdRNzZ/bFhMAl85chCQxXr0yAam/sbS/8AoG2f/fhf8KP7G0v/AKBtn/34X/CgB/8Aaunf8/8Aa/8Af5f8aP7V07/n/tf+/wAv+NM/sbS/+gbZ/wDfhf8ACj+xtL/6Btn/AN+F/wAKAH/2rp3/AD/2v/f5f8aP7V07/n/tf+/y/wCNM/sbS/8AoG2f/fhf8KP7G0v/AKBtn/34X/CgB/8Aaunf8/8Aa/8Af5f8aP7V07/n/tf+/wAv+NM/sbS/+gbZ/wDfhf8ACj+xtL/6Btn/AN+F/wAKAH/2rp3/AD/2v/f5f8aP7V07/n/tf+/y/wCNM/sbS/8AoG2f/fhf8KP7G0v/AKBtn/34X/CgB/8Aaunf8/8Aa/8Af5f8aP7V07/n/tf+/wAv+NM/sbS/+gbZ/wDfhf8ACj+xtL/6Btn/AN+F/wAKAH/2rp3/AD/2v/f5f8aP7V07/n/tf+/y/wCNM/sbS/8AoG2f/fhf8KP7G0v/AKBtn/34X/CgB/8Aaunf8/8Aa/8Af5f8ao+EyG8LaeQQQYyQR35NXP7G0v8A6Btn/wB+F/wrP8GgL4R05VAAEZAAHAG40AbtFFFABRRRQAUUUUAFFFFABRRRQAUUUUAFFFFABRRRQAUUUUAFFFFABRRRQAUUUUAFFFFABRRRQAUUUUAFFFFAHm3iJLiT4FWSWqu0zWFkqqhYE58vjK8geuK5rWPDXjLRYtOt9Juo4b66vbiS2t4Z5ZYrVPs+Cod+ckgkZ4BNekeFNZ0uPwdoaPqVmrrp8AZWnUEHy14PNa/9uaT/ANBSy/8AAhP8aAMnwXNYT+CbNtOguYIhEVeK6LGVJB98OW5Lbs5NUJWlT4Lq0Cl5hoKlFVSST5IxwOtdHLrekmJwNUsvun/l4T/GsPQb3Q7zwJpFle3tk8bafbrJE9wo6IvB59RQBwE2ra9qHizS7S4u76IW126LYW9mQY4haNtlEmPmLMxwCcZA9Ky9H1TW/D+nX39iw3FxN9ngE1+kU4WPMuHaWKUMBMFJJIyMdsV6j/YfgTGNml/+BI/+Ko/sPwJ/d0v/AMCR/wDFUAeY+IvE/izUfDQtL2+lhEtoHiNrYuTfn7RtPzbQUKoFPAAOc9CK7Twr4l8U6j4/vrDUtqWSPcA2zQFTCqsBEwYLj5hz8zHOeOlbX9h+BB0XS/8AwJH/AMVVixsfBum3aXVnJpsM6ZCutyMjP/AqAOnoqh/bmk/9BSy/8CE/xo/tzSf+gpZf+BCf40AX6Kof25pP/QUsv/AhP8aP7c0n/oKWX/gQn+NAF+iqH9uaT/0FLL/wIT/Gj+3NJ/6Cll/4EJ/jQBfoqh/bmk/9BSy/8CE/xo/tzSf+gpZf+BCf40AX6Kof25pP/QUsv/AhP8aP7c0n/oKWX/gQn+NAF+iqH9uaT/0FLL/wIT/Gj+3NJ/6Cll/4EJ/jQBfoqh/bmk/9BSy/8CE/xo/tzSf+gpZf+BCf40AX6Kof25pP/QUsv/AhP8aP7c0n/oKWX/gQn+NAC61/yAdR/wCvaT/0E0aL/wAgHTv+vaP/ANBFUdY1rSm0PUFXU7Ik20gAFwn90+9XtF/5AWnf9e0f/oIoAvUUUUAFFFFABRRRQAUUUUAFFFFABRRRQAUUUUAc1Zaf4j0yKW2tX0qSA3M8yNKJA2JJWkwcccbsfhWdrv8AwnG+HZ9g/s7B+0/YvM8/2x324znZ8/pXbUUAef2vmf8ACm9T8jd5nk3+zyt+c+bLjG75vz59ea4x/DPijSfDVpeWk0VpNe3Oni2tY55po45BndLJu5GcjIAxxXpnhnVdOt9Ikin1C1ikW+vNyPMoI/0mTqCa2P7c0n/oKWX/AIEJ/jQBzvw2kU+Gnhniuo9WhuHTU/tTFna4z8zZPVTwVxxjFaHhvP8Awi820ZP2m9wP+3iWtL+3NJ/6Cll/4EJ/jWF4b1PSH8OSW9xqFnskubtWRp1GVM8nv3BoA8w/tnxDcWfh/TZri5tYkfTHjs0sm/0gNIDI5kxldpABGfr1qxYXs1lr2myyWeoy+JG1GdNTkZ51MYJYJxtMbQ7duBkdsd69E/sPwJ/d0v8A8CR/8VR/YfgT+5pf/gSP/iqAOFuvFXjaz0PSri71WWKa60971HTSw/nXGVCWpUD5cjnPBOe2Kt6h498SWzXVq4lt7+GW6kkjNoSkcK2peP5yu0/P3zk4Ndf/AGH4D/uaX/4Ej/4qlXRfAqhgF0sBlZCPtI5BBBH3vQmgDzs+I9f13Q3OoXd5f6Gl1YSXt1b2bQOI3VjNEAgyyqwTJHOCeatXF3Npslpf+D7fV57WG11OS0jvA7IWAhxsDfMUzuKhuSQccV3kukeB55PMkGls+AuTcjoAAP4vQCmf2H4D/uaX/wCBI/8AiqAOFGt+IdRu9OZtavbrTIdTMK362PkfaQ9uxKsoA4D/ACg4/i9RVS01/wAb6D4Ys7SK5nnjksLKfz3sxusld2Vxnad2AoyWBxnNei/2H4D/ALml/wDgSP8A4qj+w/An93S//Akf/FUAcfB4z8XrqnhmO6fzIrpYhOltZsDNukZS53oONuCdpGOTjGK9frkRongVSCF0wEHIIuR/8VW//bmk/wDQUsv/AAIT/GgC/RVD+3NJ/wCgpZf+BCf40f25pP8A0FLL/wACE/xoAv0VQ/tzSf8AoKWX/gQn+NH9uaT/ANBSy/8AAhP8aAL9FUP7c0n/AKCll/4EJ/jR/bmk/wDQUsv/AAIT/GgC/RVD+3NJ/wCgpZf+BCf40f25pP8A0FLL/wACE/xoAv0VQ/tzSf8AoKWX/gQn+NH9uaT/ANBSy/8AAhP8aAL9Yfg7/kUtP/3D/wChGrv9uaT/ANBSy/8AAhP8ao+DWDeENOZSCpjJBByCNxoA3aKKKACiiigAooooAKKKKACiiigAooooAKKKKACiiigAooooAKKKKACiiigAooooAKKKKACiiigAooooAKKKKAOa8J6Tpsng7Q3fT7RmbT4CWMKkk+WvtWx/Y2l/9A2z/wC/C/4VT8I/8iXoX/YOt/8A0WtbNAGfLo+liJyNNs/un/lgv+FZfhXSdNk8H6I76faMzWEBJMKkk+WvtXQy/wCpf/dNcpBdXdj8JLa6sCRdxaNG8JCbsOIhjjvz2oA6H+xtL/6Btn/34X/Cj+xtL/6Btn/34X/CvP8AXfEHiHR4b2yS/uJbiC5kEFy0CJ5gECSBDhCD8zkAAZOMZGM02TV/FN4kl5b6tNDDJ9raOJLNCEEUYdMErk5Ykc9RwOeaAPQv7G0v/oG2f/fhf8KP7G0v/oG2f/fhf8K4TS/E2v3niW4gvJ1tYAs3mQ+WSYYxGCkoHl+pzksQegGa3PE+p6vp0OnSaWzzi8U2gIhB2zSAeVKwxwoO4ntg0Ab/APY2l/8AQNs/+/C/4Uf2Npf/AEDbP/vwv+Fec3nirxAdYvbK0vZUDP5MZkgVmhYTxJnaEGMoznljkc/LipNTvtXvIb+wfV7r7ZHeRRfZxaDESLcRBJdwA5YfMckg5IwMGgD0L+xtL/6Btn/34X/Ck/sbS/8AoG2f/fhf8K871fxV4g0uIQC6nkntp7gebJCqi5RJVCggIdx2k8KF45yMVfa71W6ubVru9ldJpr94FWDAj8tWWIADBY4Jb3xxQB239jaX/wBA2z/78L/hSf2Npf8A0DbP/vwv+FeUrLt0lIft1v8AYbWRSLw21wY7yTyTlGG7KsDjnPJOMZGK7TQLm6ln1ZZIWgVtPtZ2t8k+TM8bh0GfZU/P3oA6L+xtL/6Btn/34X/Cj+xtL/6Btn/34X/CvIpYdXtPDllpMy3ssB0O6nt5/mLAPCuYmPXcrE49iO4Ndp4b/tG38aXOmX4ncWOnrFHcsDtuIzISjZ6bsfK3upPegDqv7G0v/oG2f/fhf8KP7G0v/oG2f/fhf8Ku0UAUv7G0v/oG2f8A34X/AAo/sbS/+gbZ/wDfhf8ACrtFAFL+xtL/AOgbZ/8Afhf8KP7G0v8A6Btn/wB+F/wq7RQBS/sbS/8AoG2f/fhf8KP7G0v/AKBtn/34X/CrtFAGJrOkaYuh6gy6daAi2kIIgX+6farui/8AIC07/r2j/wDQRRrX/IB1H/r2k/8AQTRov/IB07/r2j/9BFAF6iiigAooooAKKKKACiiigAooooAKKKKACiiigAooooA5nwxplhPo8ks1jbSSNfXmWeJST/pMncitj+xtL/6Btn/34X/CubXzD8NNc8rf5mNT27M7s+dNjGO9eeyeGPEGl+FPDUulLaW2r3l7bGOWPzmx/o8hzMHJ7n0xnrQB7P8A2Npf/QNs/wDvwv8AhWL4V0nTZND3Pp9ox+13QyYV6C4kx2qL4dPbnwhBHHb3VvdRuyXsd2xaX7QD+8LMfvZPII4wRVvw3n/hF5toyftN7gf9vEtAGn/Y2l/9A2z/AO/C/wCFL/Y2l/8AQNs/+/C/4V4j/aviG4tPD+mzzXdrEj6Y8dlHYt/pCmQGRzJjK7SAMZHv1qlpT6rp2uPe2CztexNqTzLHbzh1AWQxmQvmN1yFwAM8igD3v+xtL/6Btn/34X/Cj+xtL/6Btn/34X/CvKrzxT4y02/8PW7Xk9w88drNdg2KojiaTDqMKT8i+646nOcUjeJ/HFrpz3T3M0/2q0mlA/s8Zs9lyse4ADLnyyTg9cUAerf2Npf/AEDbP/vwv+FH9jaX/wBA2z/78L/hXJfDGW5nsdcmubq4u9+qyGO5ngMJlTYmGCEDAPsMV3VAFL+xtL/6Btn/AN+F/wAKP7G0v/oG2f8A34X/AAq7RQBS/sbS/wDoG2f/AH4X/Cj+xtL/AOgbZ/8Afhf8Ku0UAUv7G0v/AKBtn/34X/Cj+xtL/wCgbZ/9+F/wq7RQBS/sbS/+gbZ/9+F/wo/sbS/+gbZ/9+F/wq7RQBS/sbS/+gbZ/wDfhf8ACj+xtL/6Btn/AN+F/wAKu0UAUv7G0v8A6Btn/wB+F/wo/sbS/wDoG2f/AH4X/CrtFAFL+xtL/wCgbZ/9+F/wo/sbS/8AoG2f/fhf8Ku0UAUv7G0v/oG2f/fhf8Kz/BoC+EdOVQABGQABwBuNbtYfg7/kUtP/ANw/+hGgDcooooAKKKKACiiigAooooAKKKKACiiigAooooAKKKKACiiigAooooAKKKKACiiigAooooAKKKKACiiigAooooAxvCP/ACJehf8AYOt//Ra1s1jeEf8AkS9C/wCwdb/+i1rZoAZL/qX/AN01leEv+RM0L/sH2/8A6LWtWX/Uv/umsrwl/wAiZoX/AGD7f/0WtAGxRRRQAUUUUAFFFFABUU1tDcNE0sau0T+ZGT/C2CMj8CfzqWigAqKK2hgeV4o1Vpn3yMOrNgDJ/AAfhUtFABRRRQAUUUUAFFFFABRRRQAUUUUAUda/5AOo/wDXtJ/6CaNF/wCQDp3/AF7R/wDoIo1r/kA6j/17Sf8AoJo0X/kA6d/17R/+gigC9RRRQAUUUUAFFFFABRRRQAUUUUAFFFFABRRRQAUUUUAcv4a1jTLbSZIZ9Ss4pVvrzckk6qw/0mTqCa1/7f0b/oL2H/gSn+NZnhfT7KbR5JJbO3kc315lmiUk/wCky98Vs/2Vp3/Pha/9+V/woAh/t/Rv+gvYf+BKf41heHNW0V/Dslvc6lY7JLm7DI1wgyrTye/Qg10f9lad/wA+Fr/35X/CsTwrptg+hZextmP2u7GTEv8Az8Se1AFT+xvAH9zRv+/6/wDxVL/Y/gA/w6P/AOBC/wDxVdL/AGVp3/Pha/8Aflf8KP7K07/nwtf+/K/4UAcz/Y3gAfwaN/3/AF/+Ko/sb4f/ANzRv+/6/wDxVdN/ZWnf8+Fr/wB+V/wo/srTv+fC1/78r/hQBl6bN4V0dJE0680y3WQguEuVwSPxq9/b+jf9Bew/8CU/xqb+ytO/58LX/vyv+FH9lad/z4Wv/flf8KAIf7f0b/oL2H/gSn+NH9v6N/0F7D/wJT/Gpv7K07/nwtf+/K/4Uf2Vp3/Pha/9+V/woAh/t/Rv+gvYf+BKf40f2/o3/QXsP/AlP8am/srTv+fC1/78r/hR/ZWnf8+Fr/35X/CgCH+39G/6C9h/4Ep/jR/b+jf9Bew/8CU/xqb+ytO/58LX/vyv+FH9lad/z4Wv/flf8KAIf7f0b/oL2H/gSn+NH9v6N/0F7D/wJT/Gpv7K07/nwtf+/K/4Uf2Vp3/Pha/9+V/woAh/t/Rv+gvYf+BKf40f2/o3/QXsP/AlP8am/srTv+fC1/78r/hR/ZWnf8+Fr/35X/CgCH+39G/6C9h/4Ep/jR/b+jf9Bew/8CU/xqb+ytO/58LX/vyv+FH9lad/z4Wv/flf8KAIf7f0b/oL2H/gSn+NH9v6N/0F7D/wJT/Gpv7K07/nwtf+/K/4Uf2Vp3/Pha/9+V/woAh/t/Rv+gvYf+BKf41T8GMG8IaaykMpjJBByCNxrS/srTv+fC1/78r/AIVm+DQF8I6cAAAIyAB2+Y0AbtFFFABRRRQAUUUUAFFFFABRRRQAUUUUAFFFFABRRRQAUUUUAFFFFABRRRQAUUUUAFFFFABRRRQAUUUUAFFFFAGN4R/5EvQv+wdb/wDota2axvCP/Il6F/2Drf8A9FrWzQAyX/Uv/umua068ksPhdZXcKyNLDo8boIk3tuEIxgd66WX/AFL/AO6ayvCX/ImaF/2D7f8A9FrQB53L4o1q40i5t7nUpoIla4RLqKATNKfKRoo8+WoIYs/IUZ24B71Xm1jXES2eO7ulv7K3uDHZfZcrCFtv3bk4yxY84JOSegxXslFAHm0mteJ7PxVLprXnmJAdiiSEkzR+SWMuxI+Tv44cDjbjPJzj4r19dFil/tCZ3SdwXSJSbjEaMFibywG5J+RgrHkbuM161RQBz2q3l7DoOoXun3Ms89pOZTH5IyUQhnhAxzlQwB65I5rkbvxVr9ve6W7yyos5huHheIBfJlnIIxsJJSPGeV29TnOK9PooA83tdY15W046jq11F9qVpYglirebJ5oUQkbeAEweoJ3E5wMVTs9T1zRNFiie7u2intBIpaFV+yt9oC43FTgbW5LBiMZx2r1SigDyoa54g1LQp5rm9mjgis1SdUhCby1w0buXKgjEYzwB68VseILa+tNQ19rGS+ZX0mIoiMcR4kYMIgOh256c9K7qaGO4heGZFkikUq6MMhgeCDSoixxqiDCqAAPQUAeSXMkW66KyX39gMbn+yyhl/wBf5UQXbjk/P5u3PGc4rp7A3w0vxTbTMztHCpIH8MzWytIB9WO76sa7aoobeG3EnkxqnmOZHwPvMepPvQB5BeWeqLp8OhXSX0kCaUPIul3bnjeSH5SR0dCGHrjB9a7Hwq+p/wDCV6vbamkxltLS2txOwOy4AaUiQHpkqy59DkV2dFABRRRQAUUUUAFFFFAFHWv+QDqP/XtJ/wCgmjRf+QDp3/XtH/6CKNa/5AOo/wDXtJ/6CaNF/wCQDp3/AF7R/wDoIoAvUUUUAFFFFABRRRQAUUUUAFFFFABRRRQAUUUUAFFFFAGJ4T/5Abf9f15/6Uy1t1ieE/8AkBt/1/Xn/pTLW3QAVz/htmTwvM6ffW5vSvHf7RLXQVh+Ev8AkA/9vl3/AOlElAHGf294istLjF3f3Uklza2M/ntAkQheUSeYudhCr8i9VYgnHek03VvFWspaTHVLi1WSa2tpUSzXjdETI/zLkHcPoDnivUKKAPL9K8TeKLnX9MtrlxGHEAaJ4yvnoVPmSbRGecjruUDHI5rp9b1e+0rw3Z6vYvPqMcLgzosHz3CMCowuMghip4x0rqaKAPK9V8TeJdMvZbX7XLJcQWrxyDyQQ0oti4dVCdDIAAS2D0296l1i+1lbTWdNutWu5blbCRYYEsxi5Rrcs0mVHykOSoweNoGCTmvT6KAPMdV1vxDo9tc2AvrqWWOdRDdNCqbgbcPsJCMD85wAFyemR1qzBqWrap9jub66k+x3GpWsQtxCEVV8oSHnG45k4/DFei1FcW8N1F5U8ayJuDbWHcEEH8CAaAPJI9/2a5tWvl8jzI5bu/NlNmNzK2YpV3fjkEYxzwRXU+E7q5l1TT8wC3SbSnaWFQwX5JtsTgNyNys5wecfSu3qJbeFLiS4WNRNIqq745IGcD6DJ/M0AeU20OraeNOhKXc1lfatcXAYhibeRTMGU99jDaw98+oq94Rj1Sw1Pwvpl0l1JbJpz3ENw4JwHjTdE5/vK2cZ7Eehr02igAooooAKKKKACiiigAooooAKw/B3/Ipaf/uH/wBCNblYfg7/AJFLT/8AcP8A6EaANyiiigAooooAKKKKACiiigAooooAKKKKACiiigAooooAKKKKACiiigAooooAKKKKACiiigAooooAKKKKACiiigDG8I/8iXoX/YOt/wD0WtbNY3hH/kS9C/7B1v8A+i1rZoAZL/qX/wB01leEv+RM0L/sH2//AKLWtWX/AFL/AO6a5a2nvLX4TWtxp+77ZFo0bw7F3HcIQRgd/pQB1lFedXGuazrN7ef2Xf3dvZI87QypaDLhII2UDevQuW+vIqDSrvUH1kXl7d3lhFLb3hKx2/yB90JDbdpy2C2M+n1oA9MorlvEt5rVprGn2+nNIYNQAt9yxBhbuHDGQnHQx7xzxkL61y1v4k8RX+pXFpDdXMKzyxhHaAM8H+kBHGNgVSEOcEtjg57UAepUV5lPc6vqTfY5NUvheLqEayxLaDbbKs6hXV9oBJTnnIOSeAKin8TeIbPULG3ee5bybhI5WkhCieM3LRs2BGdxCAEkFAODznFAHqVFeV3l14hm0gSSXFzNqEmmXtxAuzyykm9ECqFAOQhYjvkkirvh53ju9MFqwaL+05YkljWREnhMAZiEckgBwB6ZBPegD0eiiigAooooAKKKKACiiigAooooAKKKKAKOtf8AIB1H/r2k/wDQTRov/IB07/r2j/8AQRRrX/IB1H/r2k/9BNGi/wDIB07/AK9o/wD0EUAXqKKKACiiigAooooAKKKKACiiigAooooAKKKKACiiigDE8J/8gNv+v68/9KZa26xPCf8AyA2/6/rz/wBKZa26ACsPwl/yAf8At8u//SiStysDwyjSeGZUR2RmubwBl6qftEvIz3oA36K8jttf8RWHh+CyjvLh5E0b+0vtM8QLRrHCyvG2RyfOCdecHvUt34m8QJbL9kv7ibTzOAdSmh8pg3k7vLGIm438fd/2c96APV6K5ldR1VfC9/doTcaxHp6S/ZRCVRJvKzhcgE5bseR04rldM1XxPqkcMK6pKsDyyf6VDDvfiDdtJaJF+/6L7ZzQB6hRXl9x4w17+x2QG4TVXi88RraE7UNn5gP3cf63j1zxVia88U6fJeP/AGld3oieSGOJ7ZFD/wCimQNkL1EnAPTscmgD0iiuS8L4i1l7e1kL2TaTZzEk5zIfMG7PqyqpP0B711tABRRRQAUUUUAFFFFABRRRQAUUUUAFFFFABWH4O/5FLT/9w/8AoRrcrD8Hf8ilp/8AuH/0I0AblFFFABRRRQAUUUUAFFFFABRRRQAUUUUAFFFFABRRRQAUUUUAFFFFABRRRQAUUUUAFFFFABRRRQAUUUUAFFFFAGN4R/5EvQv+wdb/APota2axvCP/ACJehf8AYOt//Ra1s0AMl/1L/wC6ayvCX/ImaF/2D7f/ANFrWrL/AKl/901leEv+RM0L/sH2/wD6LWgDYooooAKKKKACiiigCKS3hllileNWkiJMbEcrkYOPwpWt4XuEuGjUyxqVRyOVBxnH5CpKKACiiigAooooAKKKKACiiigAooooAKKKKAKOtf8AIB1H/r2k/wDQTRov/IB07/r2j/8AQRRrX/IB1H/r2k/9BNGi/wDIB07/AK9o/wD0EUAXqKKKACiiigAoopGZUQu7BVUZJJwAKAForK/4Sfw//wBBzTP/AALj/wAaP+En0D/oOaZ/4Fx/40AatFZX/CT6B/0HNM/8C4/8aP8AhJ9A/wCg5pn/AIFx/wCNAGrRWV/wk+gf9BzTP/AuP/Gj/hJ9A/6Dmmf+Bcf+NAGrRWV/wk+gf9BzTP8AwLj/AMaP+En0D/oOaZ/4Fx/40AatFZX/AAk+gf8AQc0z/wAC4/8AGq174y0CzSFhq1hL5syRYS6j+Xccbjz0FAD/AAn/AMgNv+v68/8ASmWtusHwfIk3h7zYnWSN7y7ZXQghgbmTBBHUVvUAFYfhL/kA/wDb5d/+lElblYfhL/kA/wDb5d/+lElAGhLpVhPJdyS2sbvdxeTOzDJkjwRtPtyePerYAAAHAFLRQAUUUUAFFFFAFa0sLSwVltLeOENjcEGM4GB+Q4qzRRQAUUUUAFFFFABRRRQAUUUUAFFFFABRRRQAVh+Dv+RS0/8A3D/6Ea3Kw/B3/Ipaf/uH/wBCNAG5RRRQAUUUUAFFFFABRRRQAUUUUAFFFFABRRRQAUUUUAFFFFABRRRQAUUUUAFFFFABRRRQAUUUUAFFFFABRRRQBjeEf+RL0L/sHW//AKLWtmsbwj/yJehf9g63/wDRa1s0AMl/1L/7prjpY5ZfgwkcCu0zaGgQICWJ8kYwB1rsZf8AUv8A7prL8KKV8HaGrAhhp8AIIwQfLWgDjdR1LXdOubqyuNVv0tIJpRFeraq0kr+TG8cfCY2lmk6DnaBmobvxR4lWyntsXEerRLdPIiWpZUAh3R4O3BG48euK9PooA4GPUNXtPF0um3OqXc9skDAyLAAUAi3eYy+Xg/NnBVj/AHdvetLxPfazZQ6dJpLTTi7U2eRFnZLIB5czDHAXBJ7c11lFAHll54h8SNrF7Z2lzdxq7+SjPBvaIieJN23ywoyhc8s2RzxUmpz6veRX+nyalqDXaXkUfki0BSONbiLy5QwUZJX5j1B54AFen0UAeW6v4h8R6ZELeOa8kmtp7jbLJDj7QiSqFBCxncdpPA2DHOe1a9jLqN1relnUbueSGe8vGiRowixhAViA4BPyktk9a7uo5beGcxmWNXMT70JH3WwRke+CfzoA8xvrOS20GOO6u7lIoNUvWBuraS5875n2BsEHnse/btTrIXF3q0AvrW5ttTknDTxfOYo7E2vK5+7tDnGOu6vUKZLFHPC8Mqho3UqynoQeooA4G+s7/XPBnhOIzzx3T3MUn2mPJKFYpCjn2yEJzwc+9Y9pBruqa0l8trcWepW17dTCNgwieRYoFKE9DG+HAPvnqK9YRFRFRFCqowFAwAKWgDnfA0ks3hO2mmgnt3kkmcxTqVdMyMcEGuioooAKKKKACiiigAooooAo61/yAdR/69pP/QTRov8AyAdO/wCvaP8A9BFGtf8AIB1H/r2k/wDQTRov/IB07/r2j/8AQRQBeooooAKKKKACs3xD/wAi1qv/AF5zf+gGtKs3xD/yLWq/9ec3/oBoAXTLO1OlWZNtD/qE/wCWY/uirX2K1/59of8Av2KZpn/IJs/+uCf+girVAEH2K1/59of+/Yo+xWv/AD7Q/wDfsVPRQBB9itf+faH/AL9ij7Fa/wDPtD/37FT0UAQfYrX/AJ9of+/Yo+xWv/PtD/37FT0UAQfYrX/n2h/79iq17otjfLArwovkzpOuxAMlTkA8dKnv7+10uxmvb2dILaFS0kjnhRUlvcR3drFcwtuilQSI2MZUjINAGR4SAXQSFAAF7eAADp/pMtblYnhP/kBt/wBf15/6Uy1t0AFc74ekaLwncSIcOlxesp9xPLXRVheFUWTw8yOAVa7vAQe4+0SUAcZoms+INWi05LfVb2WG5Fo1zdtaKpjkZJDLGuVAx8qc84z1OaZZax4gt7SdY3ukvoYGay09LL91OuxjuY4GDv46joBg5r0+CGK2t44IUCRRKERF6KoGABUlAHEeD9U1O+gLahfyPH9qRYHWNmMmY8sjMYk4B5yBx0yaoaxceIE1fWhp89zaxwQXd0hhtlbzpI44DGpJU5yS445PI7V6NRQB5tZ+bca7LZ6rPcvayXV/Iy3GQq/u49ijgcbHkI64xVq/tdQ13wX4RWSe4jvZZLeV7iMHcjiJmDt/wLGQeOcV293Y2t/EI7uCOZBnAcZ6gg/mCR+NTgAAAAADoBQB5JaQ69qPiJdTSzuLXU7Oa8lELbhFI6i3Vo89CrgPtP0PY13XgV5JPBthLLDNC8hlk8udSrqGkYgMD0ODXRUUAFFFFABRRRQAUUUUAFFFFABRRRQAUUUUAFYfg7/kUtP/ANw/+hGtysPwd/yKWn/7h/8AQjQBuUUUUAFFFFABRRRQAUUjMqKWYgKBkkngCsv/AISjw/8A9B3TP/AuP/GgDVorK/4Sfw//ANB3TP8AwLj/AMaP+En8P/8AQd0z/wAC4/8AGgDVorK/4Sfw/wD9B3TP/AuP/Gj/AISfw/8A9B3TP/AuP/GgDVorK/4Sfw//ANB3TP8AwLj/AMaP+En8P/8AQd0z/wAC4/8AGgDVorK/4Sfw/wD9B3TP/AuP/Gj/AISfw/8A9B3TP/AuP/GgDVorK/4Sfw//ANB3TP8AwLj/AMaP+En8P/8AQd0z/wAC4/8AGgDVorK/4Sfw/wD9B3TP/AuP/Gj/AISfw/8A9B3TP/AuP/GgDVorK/4Sfw//ANB3TP8AwLj/AMaP+En8P/8AQd0z/wAC4/8AGgDVorK/4Sfw/wD9B3TP/AuP/Gj/AISfw/8A9B3TP/AuP/GgDVorK/4Sfw//ANB3TP8AwLj/AMaP+En8P/8AQd0z/wAC4/8AGgDVorK/4Sfw/wD9B3TP/AuP/Gj/AISfw/8A9B3TP/AuP/GgDVorK/4Sfw//ANB3TP8AwLj/AMaP+En8P/8AQd0z/wAC4/8AGgDVorK/4Sfw/wD9B3TP/AuP/Gj/AISfw/8A9B3TP/AuP/GgDH8K+JtBh8IaJFLrempIlhArI13GCpEa5BGeta3/AAlXh3/oPaX/AOBkf+NaX2a3/wCeEX/fAo+y2/8Azwi/74FAGb/wlXh3/oPaX/4GR/40f8JV4d/6D2l/+Bkf+NaX2W3/AOeEX/fAo+y2/wDzwi/74FAGb/wlXh3/AKD2l/8AgZH/AI0f8JV4d/6D2l/+Bkf+NaX2W3/54Rf98Cj7Lb/88Iv++BQBm/8ACVeHf+g9pf8A4GR/40f8JV4d/wCg9pf/AIGR/wCNaX2W3/54Rf8AfAo+y2//ADwi/wC+BQBm/wDCVeHf+g9pf/gZH/jR/wAJV4d/6D2l/wDgZH/jWl9lt/8AnhF/3wKPstv/AM8Iv++BQBm/8JV4d/6D2l/+Bkf+NH/CVeHf+g9pf/gZH/jWl9lt/wDnhF/3wKPstv8A88Iv++BQBm/8JV4d/wCg9pf/AIGR/wCNH/CVeHf+g9pf/gZH/jXO6jZS2XjJLq41hILVLCaVi1rHtSMSx5XOP1611ljJp+pWEF7aJFJbzoJI38vG5TyD0oAq/wDCVeHf+g9pf/gZH/jR/wAJV4d/6D2l/wDgZH/jWl9lt/8AnhF/3wKPstv/AM8Iv++BQBm/8JV4d/6D2l/+Bkf+NH/CVeHf+g9pf/gZH/jWl9lt/wDnhF/3wKPstv8A88Iv++BQBm/8JV4d/wCg9pf/AIGR/wCNH/CVeHf+g9pf/gZH/jWl9lt/+eEX/fAo+y2//PCL/vgUAZv/AAlXh3/oPaX/AOBkf+NH/CVeHf8AoPaX/wCBkf8AjWl9lt/+eEX/AHwKPstv/wA8Iv8AvgUAZv8AwlXh3/oPaX/4GR/40f8ACVeHf+g9pf8A4GR/41pfZbf/AJ4Rf98Cj7Lb/wDPCL/vgUAYOseKPD76Jfquu6YzNbSAAXceSdp961dF/wCQFp//AF7R/wDoIqz9lt/+eEX/AHwKloAKKKKACiiigArN8Q/8i1qv/XnN/wCgGtKs3xD/AMi1qv8A15zf+gGgCxpn/IJs/wDrgn/oIq1VXTP+QTZ/9cE/9BFWqACiiigAooooAKKKKAK2o2zXmmXdqm0NNC8alugJBAzTdLtXsdJsrSQqXggSJivQlVAOPyq3RQBieE/+QG3/AF/Xn/pTLW3WJ4T/AOQG3/X9ef8ApTLW3QAVh+Ev+QD/ANvl3/6USVuVz/htpU8LzNAgeYXN6UUnAZvtEuB+dAHQUV4/aXmsTX8t9Hc391cG2td81xp5/cyhLkuqrtGdrEcDnkDJzV+y1zXJYrVLq+1GGDM2y5gt/O8+YGPYgzGp2EM/VV5BGeOQD1GivMhrviCKSaX7TeSSRu7ahAbX5bVVuEVRH8uWzGXPVsgZ4qSbV/EOofbbyzur+G3gWea3QWuPO2zAIpDLnBXPHUg5oA9JorlPCRmihWC5vb55xc3mY54yQQJRjLbeMAjHPIY9ccchYahrdjaSw2d7qHlK05vVezP+hKboBWiyvzEozn+LgZ7cgHrVFeXy614hCAJfX2wLIdLf7Lk3ziXCiX5OBtx/dyCT2qG31LxLZa5DZQh4LY3W6FHR8Thrh/NyBG2cLjGWTHB5zQB6tRmvLbLXPEeo6jLaLc30EdxNDhzDueEGVlkXmMKpC7eMtjg5oubnUZLHVzqE0zXtjphaxlkXazyC4lAfAwNxKQDgc596APUqKQZ2jOM45xS0AFFFFABRRRQAUUUUAFFFFABWH4O/5FLT/wDcP/oRrcrD8Hf8ilp/+4f/AEI0AblFFFABRRRQAUUUUAU9X/5At/8A9e8n/oJqPSYITo1iTFHn7PH/AAj+6Kk1f/kC33/XvJ/6CaNI/wCQLY/9e8f/AKCKALH2eD/njH/3yKPs8H/PGP8A75FSUUAR/Z4P+eMf/fIo+zwf88Y/++RUlFAEf2eD/njH/wB8ij7PB/zxj/75FSUUAR/Z4P8AnjH/AN8ij7PB/wA8Y/8AvkVJRQBH9ng/54x/98ij7PB/zxj/AO+RUlNckRsV5IBxxmgBv2eD/njH/wB8ij7PB/zxj/75FeLW3ivxmdG1FLh9Saf7VBGt1Ha7UjDF92AYtygbVz8r4yOeapw6z4z+yT6skF5FeXUGnxXtx9mZWjQNOHYAo2DwmcKcbs4oA91+zwf88Y/++RR9ng/54x/98ivI9M8S+NT4k8OQ373E0FxFEJ44LNowwJfLtvjHGApPKlfTmvYKAI/s8H/PGP8A75FH2eD/AJ4x/wDfIqSigCP7PB/zxj/75FH2eD/njH/3yKkooAj+zwf88Y/++RR9ng/54x/98ipKKAI/s8H/ADxj/wC+RR9ng/54x/8AfIqSigCP7PB/zxj/AO+RWN4tghHgzXSIowf7OuP4R/zzat2sbxd/yJeu/wDYOuP/AEW1AGzRRRQAUUUUAFFFFABRRRQAUUUUAFFFFAGBdJ5njSBOPm0ucc/9dIqvaDp8ulaBY2EzI0tvCsbMmdpIHbNVJf8AkerX/sGTf+jYq3KACiiigAooooAKKKw9RvdVbX4dM02WyhBtWuHe5gaXJDhQAFdcdT60AblFYnkeKf8AoJaP/wCC+X/49R5Hin/oJaP/AOC+X/49QBt0VieR4p/6CWj/APgvl/8Aj1HkeKf+glo//gvl/wDj1AG3RWJ5Hin/AKCWj/8Agvl/+PUeR4p/6CWj/wDgvl/+PUAbdFYnkeKf+glo/wD4L5f/AI9R5Hin/oJaP/4L5f8A49QBt0VieR4p/wCglo//AIL5f/j1HkeKf+glo/8A4L5f/j1AG3Wb4h/5FrVf+vOb/wBANVvI8U/9BLR//BfL/wDHqr3uneJr6wubR9U0hUniaJiuny5AYEZ/13vQBs6Z/wAgmz/64J/6CKtVFbQ/ZrSGDdu8tFTOMZwMVLQAUUUUAFFFFABRRRQAUUUUAYnhP/kBt/1/Xn/pTLW3WJ4T/wCQG3/X9ef+lMtbdABWH4S/5AP/AG+Xf/pRJW5WH4S/5AP/AG+Xf/pRJQBuUUUUAFFFFABRRRQAUUUUAFV7ixtbqWOWe3jkeP7jMuSOQf5qD9QKsUEgdTQAUUUUAFFFFABRRRQAUUUUAFFFFABWH4O/5FLT/wDcP/oRrcrD8Hf8ilp/+4f/AEI0AblFFFABRRRQAUUUUAU9X/5At9/17yf+gmsnS/FHh5NIskbXtLVlgQEG8jyDtHvWprX/ACAtR/69pP8A0E0zRYozoWnkov8Ax7R9v9kUAQ/8JX4c/wCg/pX/AIGR/wCNH/CV+HP+g/pX/gZH/jWp5Uf/ADzT/vkVQ1yKMeH9SIRf+PWXt/sGgCL/AISvw5/0H9K/8DI/8aP+Er8Of9B/Sv8AwMj/AMasaTHH/YtgSi/8e8fb/ZFXPKj/AOeaf98igDL/AOEr8Of9B/Sv/AyP/Gj/AISvw5/0H9K/8DI/8a0xHEwyEQ/QCl8qP/nmn/fIoAy/+Er8Of8AQf0r/wADI/8AGj/hK/Dn/Qf0r/wMj/xrU8qP/nmn/fIo8qP/AJ5p/wB8igDL/wCEr8Of9B/Sv/AyP/Gj/hK/Dn/Qf0r/AMDI/wDGtTyo/wDnmn/fIo8qP/nmn/fIoAy/+Er8Of8AQf0r/wADI/8AGj/hK/Dn/Qf0r/wMj/xrU8qP/nmn/fIo8qP/AJ5p/wB8igDL/wCEr8Of9B/Sv/AyP/Gj/hK/Dn/Qf0r/AMDI/wDGtTyo/wDnmn/fIo8qP/nmn/fIoAy/+Er8Of8AQf0r/wADI/8AGj/hK/Dn/Qf0r/wMj/xrU8qP/nmn/fIo8qP/AJ5p/wB8igDL/wCEr8Of9B/Sv/AyP/Gj/hK/Dn/Qf0r/AMDI/wDGtTyo/wDnmn/fIo8qP/nmn/fIoAy/+Er8Of8AQf0r/wADI/8AGj/hK/Dn/Qf0r/wMj/xrU8qP/nmn/fIo8qP/AJ5p/wB8igDL/wCEr8Of9B/Sv/AyP/Gj/hK/Dn/Qf0r/AMDI/wDGtTyo/wDnmn/fIo8qP/nmn/fIoAy/+Er8Of8AQf0r/wADI/8AGsjxV4m0CbwhrcUWuaa8j2E6qi3cZLExtgAZ5NdX5Uf/ADzT/vkVj+Loox4L10hFB/s647f9M2oA26KKKACiiigAopsjbI3Yfwgmua0qbxRqmj2OoDUNHj+1W8c+z+z5Tt3KGxnzucZoA6eisT7P4p/6Cmj/APgul/8Aj9H2fxT/ANBTR/8AwXS//H6ANuisT7P4p/6Cmj/+C6X/AOP0fZ/FP/QU0f8A8F0v/wAfoA26KxPs/in/AKCmj/8Agul/+P0fZ/FP/QU0f/wXS/8Ax+gBJf8AkerX/sGTf+jYq3KxLHS9TGuDUtSvrOYpbNboltatF95lYklpGz90enWtugAooooAKKKKACsNv+R7i/7Bj/8Ao1a3Kw2/5HuL/sGP/wCjVoAta1run+H7eC41KYwwz3CW6vtJAds4zjoODyeBVm1v7e9mu4oWJe0m8iUFSMPsV+PXh1qh4g0X+3E0+JhE0EN2JZ0kzh49jqVHv81VfCOgXnh+21GG8u1uvOvDLDJzu8oRxogfP8QCcnvQB0VFFFABRRRQAUUUUAFFFFABRRRQAUUUUAFFFFABRRRQAUUUUAFFFFAGJ4T/AOQG3/X9ef8ApTLW3WJ4T/5Abf8AX9ef+lMtbdABXP8AhmNpfDMsaSNE73N4qyL1Um4l5H0roKw/CX/IB/7fLv8A9KJKAOKu9c8UtoomlW9t7hpvsoCRFRvijYM+RG5w8n3cDBAAyM5qIa7rVjDf3xivUa9sZpEEdm7Zu/IgKYG0kc+Z144NerUUAeR6xf8Aii//AOEhsZ1maM2t0n2ZY3P7sR/uyoEWMk995zkjAxV7yYo9ahufDOnTW+mb7dZ1WyZI2l3MdyxsBgqvVgB1HNenUUAeVWWt69JYxLe3+qR23msJb23tS7M/lAqqqYwwBbOVKnBwu4jmrFxq/iVZr0xT373sYnM9r9lxHDEqgxsny8seOATnJHavTaKAPNL7V/EGqT6ncaZdalb2lvb3k9rttMec0awmNcMuSCS/HU8+lb3hkzx3l7HdXd/5jancMsUsZKFSoIGSvCgHIwevHtXW0UAeb3EviFJ9Se0lvLaO2aeeOKK2G2ZxcYAPy/MCuenJzmq0aSB7+11Ke6aOG01OVGucgo4kXBUkD7qEEEepx0r1Gq91Y2t6EFzbxzbDld65x60AM0p7iTR7KS7GLlreMzD/AGyo3frmrdFFABRRRQAUUUUAFFFFABRRRQAVh+Dv+RS0/wD3D/6Ea3Kw/B3/ACKWn/7h/wDQjQBuUUUUAFFFFABRRRQBR1r/AJAOo/8AXtJ/6Ca4vxxY3OpfDDTrW0thcyvJYjymRmUjcmdwXnbjr7V2mtf8gLUP+vaT/wBBNZGj+K/DiaJYI+v6UrLbRgg3kYIO0e9AHmWteCPFWlDTrPSbhftMhvpylosiwwRsifuI2OSm7BAJxyTivSbB7KT4aMdOsJdPthp8gW1mjKPEQpyrA85znnv171o/8Jb4a/6GHSf/AANj/wDiqoa14q8OyaDqKJr+ls7W0gVReRkk7Tx1oAr+JVnb4V3C2sTTTmwj2RrHvLHC/wAPevP7uTX9W8ZRJfHWWMD6jH9nt7TalvGbdliaKTADMw9W6+leh2+ueEb/AMO2llqGr6LPCYIw8M11EykgA8gnsR+lVfs3wx9PCv8A33B/jQB51o8+raDpN/FpFjeRrIbSI39rYy23OWDb4nDgMABudFbORTodW8aG1m1ZYLyO+uLWxhvLj7MyMkay3AdgNh+bATOFOA2cV6H9m+GPp4V/77g/xo+zfDH08K/99wf40AbHgy51O88I6dPrD7790PmP5bRlhuO0lWAIJXGeBW9XPWOu+D9MtRbWOsaJbQKSRFFdRKoJ64ANWf8AhLfDX/Qw6T/4Gx//ABVAGxRWP/wlvhr/AKGHSf8AwNj/APiqP+Et8Nf9DDpP/gbH/wDFUAbFFY//AAlvhr/oYdJ/8DY//iqP+Et8Nf8AQw6T/wCBsf8A8VQBsUVj/wDCW+Gv+hh0n/wNj/8AiqP+Et8Nf9DDpP8A4Gx//FUAbFFY/wDwlvhr/oYdJ/8AA2P/AOKo/wCEt8Nf9DDpP/gbH/8AFUAbFFY//CW+Gv8AoYdJ/wDA2P8A+Ko/4S3w1/0MOk/+Bsf/AMVQBsUVj/8ACW+Gv+hh0n/wNj/+Ko/4S3w1/wBDDpP/AIGx/wDxVAGxRWP/AMJb4a/6GHSf/A2P/wCKo/4S3w1/0MOk/wDgbH/8VQBsVjeLv+RL13/sHXH/AKLal/4S3w1/0MOk/wDgbH/8VWR4q8U+HpvCGtRRa9pckj2E6oi3kZLExtgAZ5NAHX0UUUAFFFFAEc//AB7yf7h/lWX4T/5E3Q/+wfB/6LWtSf8A495P9w/yrL8J/wDIm6H/ANg+D/0WtAGwTgZPSsb/AIS7w1/0MOk/+Bsf/wAVWtN/qJP90/yrL8LKD4Q0Xgf8eEH/AKLWgBv/AAl3hr/oYdJ/8DY//iqP+Eu8Nf8AQw6T/wCBsf8A8VWxtX+6Pyo2r/dH5UAY/wDwl3hr/oYdJ/8AA2P/AOKo/wCEu8Nf9DDpP/gbH/8AFVsbV/uj8qNq/wB0flQBj/8ACXeGv+hh0n/wNj/+Ko/4S7w1/wBDDpP/AIGx/wDxVbG1f7o/Kjav90flQBj/APCXeGv+hh0n/wADY/8A4qj/AIS7w1/0MOk/+Bsf/wAVWxtX+6Pyo2r/AHR+VAGP/wAJd4a/6GHSf/A2P/4qj/hLvDX/AEMOk/8AgbH/APFVsbV/uj8qNq/3R+VAGP8A8Jd4a/6GHSf/AANj/wDiq4Z/Gtl/wsBNWGuaf/ZS27Wnk/aI8lfNVTLnOc7+cf3Bu9q9R2r6CjavoPyoAx/+Eu8Nf9DDpP8A4Gx//FUf8Jd4a/6GHSf/AANj/wDiq2Nq/wB0flRtX+6PyoAx/wDhLvDX/Qw6T/4Gx/8AxVH/AAl3hr/oYdJ/8DY//iq2Nq/3R+VG1f7o/KgDH/4S7w1/0MOk/wDgbH/8VR/wl3hr/oYdJ/8AA2P/AOKrY2r/AHR+VG1f7o/KgDH/AOEu8Nf9DDpP/gbH/wDFUf8ACXeGv+hh0n/wNj/+KrY2r/dH5UbV/uj8qAMf/hLvDX/Qw6T/AOBsf/xVH/CXeGv+hh0n/wADY/8A4qtjav8AdH5UbV/uj8qAMf8A4S7w1/0MOk/+Bsf/AMVR/wAJd4aH/MxaT/4Gx/8AxVbG1f7o/Ks/XlH/AAjup8D/AI9Jf/QDQBoKwZQykEEZBHelqtp//INtf+uKfyFWaACiiigAooooAKKKKACiiigDE8J/8gNv+v68/wDSmWtusTwn/wAgNv8Ar+vP/SmWtugArD8Jf8gH/t8u/wD0okrcrnvDm7/hFZ9oy32i9wMZyfPloA6GivMdPh8TXNvpynUNTso2MUDwxW6qscYtA5IyvB8wYz26VUn8TeK45LaeOK98/wCxJ5sMkLBS5tt27b5e0fvO5fORjAFAHrNFeR3Ova8GuYbDUdRuLCK7VGuZ4WjmTNuGCnbEzYLn+5zwMgGu6thql7oF1H9tmi1h7OPLGHbHDOY85XI5G7kjnHTigDoqK8p1fxD4qk0aLUYINRtbi6WeeC28lh5ZRUVY2AjYkk7ztO0EZ+bpV+6vdbDvdXOo6tDYz3s6qba03PGqr+5CrsJ2sSSSeuAMigD0eivMY31/Rxd3cR1ORbma+L26wDCELlHUbTgls9yDngGorHUvFF5FcD7TfBbO2vpYx5TYnYLEYVLvGpPLPjABOPagD1MEHoaK8reKKfVLSLSku7eeG1heG9aOZvPbyfkjjYDYqEnLknlieO4bHp0l54P8QpYQ6nDD/ZUIEWJUd7xUkMmAeWJzGGxwx9aAPVs0Vz9qXTxvfpEf3TadBJMo6CTfIFP1KjB9lWvPYtL1ew0jTrD7FeTWdxHd3K5jYm3lMUoaNh1AYsGX3LD0oA9iorz3wvY6lpvifTNOuLe4ays9Kk+z3TqSNjtEREx/vqVYYPbHvXoVABRRRQAUUUUAFFFFABWH4O/5FLT/APcP/oRrcrD8Hf8AIpaf/uH/ANCNAG5RRRQAUUUUAFFFFAFHWv8AkA6j/wBe0n/oJpmjRx/2Fp5KL/x7Rdv9kU/Wv+QDqP8A17Sf+gmuM8c2Fxqfwmt7O1gaeWX7CNgjMnHmR5JUckAZJ9s0Ad95cR6In5CqGuRx/wDCPakQi/8AHpL0H+wa8j8TeC9esL2xtdEt7ddmnXT3a6fbvbx3CGSItCpy2x3VcZzzg16ar2knw+kaws3s7U6c/lWzxGNohsPylTyCOlAGlpMcf9i2BKL/AMe0fUf7Iq55Uf8AcX8q5PxKs7/Cu4W1iaac2EeyNY95Y4X+HvXnl9J4p1TxfGFk1L7bbtqUcMRtdlvbA27LCySbRktxyT19KAPbxHEc4ROOOgoEcZ6In5CvD4bHTZfDqpofh/WbW9jXT1v2likRJJRcxFsqfvuMMxcDAGeeaf8A2n40sdQs7ayW4s7RruZkAtWKzObpgQ4EbHGzBBJUc5yaAPbfKj/55r+VHlR/881/KvFtWm8Z3eiaisl7qsgvLS//AHCW4UwmKYeUEIXOWXPU8g8V7Dpbb9Js28ySTMCHfKuHb5RywwMH14oAseVH/wA81/Kjyo/+ea/lT6KAGeVH/wA81/Kjyo/+ea/lT6KAGeVH/wA81/Kjyo/+ea/lT6KAGeVH/wA81/Kjyo/+ea/lT6KAGeVH/wA81/Kjyo/+ea/lT6KAGeVH/wA81/Kjyo/+ea/lT6KAGeVH/wA81/Kjyo/+ea/lT6KAGeVH/wA81/KsfxdGg8F66Qig/wBnXHb/AKZtW3WN4u/5EvXf+wdcf+i2oA2aKKKACiiigCOf/j3k/wBw/wAqy/Cf/Im6H/2D4P8A0Wtak/8Ax7yf7h/lWX4T/wCRN0P/ALB8H/otaANWb/USf7p/lWZ4V/5FDRf+vCD/ANFrWnN/qJP90/yrlPDXivw5D4V0eKXX9KSRLGFWVryMFSEGQRmgDrqKxv8AhL/DP/QxaR/4Gx//ABVJ/wAJf4Z/6GLSP/A2P/4qgDaorF/4S/wz/wBDFpH/AIGx/wDxVL/wl/hn/oYtI/8AA2P/AOKoA2aKxv8AhL/DP/QxaR/4Gx//ABVH/CX+Gf8AoYtI/wDA2P8A+KoA2aKxv+Ev8M/9DFpH/gbH/wDFUf8ACX+Gf+hi0j/wNj/+KoA2a4LxrqGtWviXT4bW61O1sWgLRtp9kLjzbjzFGyTIwF2knqO/PFdJ/wAJf4Z/6GLSP/A2P/4qj/hL/DP/AEMWkf8AgbH/APFUAeUXF34r0iCeK0GrWaGe+ntFtbIyfaboznYkmVO2Mqc54BBJzxTk0jxDdeIdj3Wr210msXk5nSHcIUa0BXYxUrtZgV79OxPPqv8Awl/hn/oYtI/8DY//AIqj/hL/AAz/ANDFpH/gbH/8VQB5jZ698QrjXNIM4uoEktrVjE1mxSUNFmYsAnDBs9WXGBwc11Hwv1TxBqNtqKa99tkeN08ua4iMasSDuCgorDB6g5x6103/AAl/hn/oYtI/8DY//iqP+Ev8M/8AQxaR/wCBsf8A8VQBs0Vjf8Jf4Z/6GLSP/A2P/wCKo/4S/wAM/wDQxaR/4Gx//FUAbNFY3/CX+Gf+hi0j/wADY/8A4qj/AIS/wz/0MWkf+Bsf/wAVQBs0Vjf8Jf4Z/wChi0j/AMDY/wD4qj/hL/DP/QxaR/4Gx/8AxVAGzRWN/wAJf4Z/6GLSP/A2P/4qj/hL/DP/AEMWkf8AgbH/APFUAbNZ+vf8i7qf/XpL/wCgGq3/AAl/hn/oYtI/8DY//iqoa34s8NyaBqKJ4g0pna1lCqt7GSTtPHWgDoNP/wCQba/9cU/kKsVW0/8A5Btr/wBcU/kKs0AFFFFABRRRQAUUUUAFFFFAGJ4T/wCQG3/X9ef+lMtbdch4d8SaFY6ZLbXetadbzx314HimukRl/wBJkPIJyK1v+Ev8M/8AQxaR/wCBsf8A8VQBs1i+FEZNC2upU/a7o4IxwbiQil/4S/wz/wBDFpH/AIGx/wDxVH/CX+Gf+hi0j/wNj/8AiqANmmyRpNE8UqK8bqVZWGQwPUEVkf8ACX+Gf+hi0j/wNj/+Ko/4S/wz/wBDFpH/AIGx/wDxVAF+w02y0yAw2NtHBGW3FUGMn1NWqxv+Ev8ADP8A0MWkf+Bsf/xVH/CX+Gf+hi0j/wADY/8A4qgDZorG/wCEv8M/9DFpH/gbH/8AFUf8Jf4Z/wChi0j/AMDY/wD4qgDZorG/4S/wz/0MWkf+Bsf/AMVR/wAJf4Z/6GLSP/A2P/4qgDVhhit4VhhjWONeFVRgD6VJWN/wl/hn/oYtI/8AA2P/AOKo/wCEv8M/9DFpH/gbH/8AFUAaqQRRyySJGqvKQXYDliBgZ/AVJWN/wl/hn/oYtI/8DY//AIqj/hL/AAz/ANDFpH/gbH/8VQBs0Vjf8Jf4Z/6GLSP/AANj/wDiqP8AhL/DP/QxaR/4Gx//ABVAGzRWN/wl/hn/AKGLSP8AwNj/APiqP+Ev8M/9DFpH/gbH/wDFUAbNFY3/AAl/hn/oYtI/8DY//iqP+Ev8M/8AQxaR/wCBsf8A8VQBs0Vjf8Jf4Z/6GLSP/A2P/wCKo/4S/wAM/wDQxaR/4Gx//FUAbNYfg7/kUtP/ANw/+hGn/wDCX+Gf+hi0j/wNj/8Aiqi8GMr+D9NdGDK0RZWByCCxwRQBvUUUUAFFFFABRRRQBR1r/kBah/17Sf8AoJrH0fxZ4bTRLBH8QaUrLbRgg3sYIO0e9bGtf8gHUf8Ar2k/9BNJoqqdC07gf8e0Xb/ZFAFX/hL/AAz/ANDFpP8A4Gx//FVR1rxZ4ck0HUUTxBpTO1tIFVbyMknaeBzXTbV/uj8qz9dVR4e1Lgf8ekvb/YNAGJb694QvvDtpZahq+iTwmCMPDPdRMpIAPIJ7EfpVXyfhh/1Kn/fVvXUaSF/sSwJA/wCPePr/ALoq4Qg6haAOL8n4Y/8AUqf99W9Hk/DD/qVP++reu0UIyhl2kHoRRtX0FAHF+T8MP+pU/wC+retm38T+FLW3jt7fXdGihiUIkaXkQVVHQAZ4Fbm1f7o/Kjav90flQBj/APCX+Gf+hi0n/wADY/8A4qj/AIS/wz/0MWk/+Bsf/wAVWxtX+6PypNqjsPyoAyP+Ev8ADP8A0MWk/wDgbH/8VR/wl/hn/oYtJ/8AA2P/AOKrY2r/AHR+VIQgxkLzQBkf8Jf4Z/6GLSf/AANj/wDiqP8AhL/DP/QxaT/4Gx//ABVbG1fQflSYTGcLj1oAyP8AhL/DP/QxaT/4Gx//ABVH/CX+Gf8AoYtJ/wDA2P8A+KrXwg7LS7V9B+VAGP8A8Jf4Z/6GLSf/AANj/wDiqP8AhL/DP/QxaT/4Gx//ABVbG1f7o/Kjav8AdH5UAY//AAl/hn/oYtJ/8DY//iqP+Ev8M/8AQxaT/wCBsf8A8VWxtX+6Pyo2r/dH5UAY/wDwl/hn/oYtJ/8AA2P/AOKo/wCEv8M/9DFpP/gbH/8AFVsbV/uj8qNq/wB0flQBj/8ACX+Gf+hi0n/wNj/+KrI8U+KvDs/hDWoote0uSR7CdURLyMliY2AAGeTXX7V/uj8qxvFyqPBeu8D/AJB1x2/6ZtQBtUUUUAFZuua7YeHbBb3UpTFbtKkRcKTtLHAJ9B6ntWlWTr+kNrMFnDmPZFdxzSLIMh0XOV/EGgCwmoW942oW8LEyWhEcuRgZKBxg9+GFVfCf/Im6H/2D4P8A0WtU/C/hq40BNVgmuxcQ3FwGticlo4RGqKrE9SAuM+gFLp2keI9M0y0sItZ0poraFIUZ9MkyQqgAnE/XigDeuf8Aj1m/3D/KszwqQPB2iE4A+wQdf+ua1y/iHTvF73Ekl5fWd5pPlcw2tlIMN3LoJwzDpxuP09YPEtjc6l8E7C0tLY3M0lrYgRCMuG5jzkLyRjr7ZoA9GBU4wQc9KhuiDZTkEEeW3T6V4xrPgDxPp0en2ujXUUN5cXV1OPsULpbWimAL5aEklN2MZ45avSvC5tT4Ftls9Lm0uNLdkazmjZHicAhgc8nnPzd+vegC94YIHhHRicACwg5P/XNa1cjjpz0rjL5Zn+DLLbRtLOdEURoqbyzeUMAL3+lcFcP4k1LxfYxtLqS3Nrc3C28Rtttrbp9kZYpBJt6ljg5PXsMUAe3hkOcMvHB56U6vBEsNPl8Hy2+m+HNXt9Yjs4E1GZ4nVZZRcRFgQf8AWvwzbgDgZ55q9q1/4u1GXXbJbnVjNJDfrPbLAFgijUH7OYXx8zNwDgkncemKAPbOD6UteKWC+I9P1GXVNKudSfzru0iNvPBhZ1NqAzyZXPDADPAB61Vtdd8eHwvdyTX18JvOg377V/MRiG8xFYRcLnbyFYL680Ae60Vk+GLq7vfDGm3N/HNHdyW6NMkwAcNjndgAZ/AVrUAFFFFABRRRQAUUUUAFFFFABRRRQAUUUUAFZviH/kWtV/685v8A0A1pVm+If+Ra1X/rzm/9ANAFjTP+QTZ/9cE/9BFWqq6Z/wAgmz/64J/6CKtUAFFFFABRRRQAUUUUAFFFFACYHoKNo9BS0UAJtHoKNo9BS0UAJtHoKNo9BS0UAJtHoKNo9BS0UAJtHoKNo9BS0UAJtHoKNo9BS0UAJtHoKNo9BS0UAJtHoKNo9BS0UAJtHoKNo9BS0UAJtHoKNo9BS0UAJtHoKNo9BS0UAJtHoKNo9BS0UAJtHoKWiigAooooAKKKKACqWratY6Jp0t/qE4htohlnIJ/AAdTV2qGt2MmqaFfWETqklxA8Ss3QEjHNACau4k8PXzr91rSQj6bDTtF/5AOnf9e0f/oIqPU4zF4ZvIyQSlm6kj2Q1Jov/IB07/r2j/8AQRQBerP13/kXtT/69Jf/AEA1oVn67/yL2p/9ekv/AKAaAMrUxOfACC2jaSb7NBtRY95PK54wc8Vw98uoale3J1BtadhbypdLHZlo7ZvtMeAgKgSJsAJUE7lB7mvUNI/5Ath/17x/+girtAHj8l3r2nWAh0q2NrYNcSkXVlaTW6zP5aeWRDskKDO4EABWK9R3lvB4jsrm8vbe1uEuHlYTzJE4Coxtg7LhWPQP0Ung4BxXrdFAHn2hza9dP52p3+ox2kNi7oYYDmQmWRVJ3RhmYIF/hGeCRWt4mm1yC/09NLNw8N+v2R2SPP2Z9ysJm44GwSDnvt9a6uigDysar4nvdWubSKXVLaG4njUOYGZoB9pVWxmMKv7s9iwxznrU1xHq+phrSa71j7WupRCZfs37uBVul2PG5XB/djJIyOpOK9OooA8uu9X8TWU1nADqTtbTupkeFiJ4xdMmSFjO4+UASSVGCCM5rV0hNQm1nSV1e5u5DPDfSp5o2eW4dEUKAAQRGWwevLGu8pkkMUrxvJGrNE25CRypwRkenBI/GgDgbPR7mLRPDw2X/mWmtS5VmcnyzPLhnB6jGDk+uanureW78J+MLKON54DdTRwRIpJIKoXUAdRvL9Peu6pkMMVvH5cMaomS21RgZJyT+JJP40AeTaloGp3V/Lot5Bey20EdlBDfIrEvF9pLA7h/Ggxk/wCyD3rrvBg1T+09fOrWzx3KzQwmUoQlxsiA8xPY8H2OR2rrqKACiiigAooooAKKKKACsbxd/wAiXrv/AGDrj/0W1bNY3i7/AJEvXf8AsHXH/otqANmiiigAooooAKKKKAI7j/j2l/3D/KuV8M+K/DkPhTR4pdf0pJEsYFZGvIwVIQZBGeDXU3P/AB6y/wC4f5VmeFmC+DtELEACwg5P/XNaAG/8Jf4Z/wChi0j/AMDY/wD4qorrxd4aazmA8RaSSY2AAvY/T/erdWSN/uurfQ5qK6YNYzlSCDG3I+lAHJaNr/hO58GaXY6hrGjSRmygWWCe6iIyEXhlJ7Ed/Sk2fDH18Kf99W9b/hghfCGjFiABYQZJ/wCua1q7hxyOenvQBxez4ZevhT/vq3o2fDH18J/99W9dmsiOzKrqzLwwByR9adQBxWz4Y+vhT/vq3o2fDL18Kf8AfVvXa013VF3OwVfUnAoAwLPxF4P0+1S1sta0O3t0ztiiu4lVcnJwAfWp/wDhL/DP/QxaR/4Gx/8AxVbIYE4BBOM0EgDJIA96AMb/AIS/wz/0MWkf+Bsf/wAVR/wl/hn/AKGLSP8AwNj/APiq2qKAMX/hL/DP/QxaR/4Gx/8AxVH/AAl/hn/oYtI/8DY//iq2qKAMX/hL/DP/AEMWkf8AgbH/APFUf8Jf4Z/6GLSP/A2P/wCKraooAxf+Ev8ADP8A0MWkf+Bsf/xVH/CX+Gf+hi0j/wADY/8A4qtqigDF/wCEv8M/9DFpH/gbH/8AFUf8Jf4Z/wChi0j/AMDY/wD4qtqigDF/4S/wz/0MWkf+Bsf/AMVR/wAJf4Z/6GLSP/A2P/4qtqigDF/4S/wz/wBDFpH/AIGx/wDxVZ+veLPDcnh3U0TxBpTO1pKFVb2MknYeBzXVVm+If+Ra1X/rzm/9ANAFjTP+QVZ/9cE/9BFWqq6Z/wAgmz/64J/6CKtUAFFFFABRRRQAUUUUAFFFFABRRRQAUUUUAFFFFABRRRQAUUUUAFFFFABRRRQAUUUUAFFFFABRRRQAUUUUAFFFFABRRRQAUUUUAFFFYV5davP4gfT9PubG3ijtlmZri1eYsWZhgYkTA496AN2isX7L4m/6C+kf+CuT/wCSKPsvib/oL6R/4K5P/kigC5rX/IC1H/r2k/8AQTRov/IB07/r2j/9BFcn4isfFBnSU6jp7xJYXYd006RVXKpwR555ODg9sHrXWaL/AMgLT/8Ar2j/APQRQBerP13/AJF7U/8Ar0l/9ANaFZ+u/wDIvan/ANekv/oBoAfpH/IFsP8Ar3j/APQRV2udvpLqLwDvspZIrkWSbJI4jIynaOQo5P4An2NcT9q1yNftxGt+Y9l5Cn52XAusF8+VuHyEHJTft5wSKAPWKK8gN54o+zrfD+0xdm1NvITFKFWNbwhn/wBWTv8AKKnO3cQSQCRXc+E57+axtW1Ke6e4KS7Q8TKrR+Z8hYsinftwOQCRzigDpqK8qtLzxleXc0M097AXuY0uBHE58kG5UfIWjCgeVuzgtxgkirjar4i09Lizl/tWeQkw2kgtWcvsvHUsxC4H7rYcnGRyKAPSaQMpYqGBI6jPSvM2TxWha7F/q7MsRnEHlDaXFyVCY25x5fbv1rR0ZpDrWkyg4vJb3U1vR3KB2wD7AiED2I9aAO8ooooAKKKKACiiigAooooAKKKKACiiigArG8Xf8iXrv/YOuP8A0W1bNY3i7/kS9d/7B1x/6LagDZooooAKKKKACiiigCK5/wCPWX/cP8q8+8S2NzqXwMgs7S3knnlsLMLHHGXJ5jz8o5Ixk16Fcf8AHtL/ALh/lXKeGfFnhyHwpo8Uuv6WkiWMCsrXcYKkRrkEZ60AcH4n8B69aXGk2egx2sc32e+eeWws2topFIi/dEgnYzhdobNen6I9rJ4NtmstNl023+y4WzliMbQ4HKlSAeD379ad/wAJh4Z/6GLSf/AyP/Gobrxf4aa0mA8Q6USY2wBeR+n1oAy79Zn+DLLbxmSc6IojRU3Fm8oYAHf6VwNy/iPUvFtkhm1Fbm2ubhbeNoAtpbobRlikEmOpY4OT17DFd9o3iHwnceDdLsdQ1jRpE+xQLLBPcxkZCLwyk9iO/pRn4Z+vhX87egDzOymu9NSNvD2gXNlex6NNFdXRtZln+1hc/M27ZLuYZBwfrzW/f3/izT9etbWPVdVuZUFp9kxChgudzf6QZ2C4TbyByMADrXW5+Gfr4V/O3oz8M/Xwr+dvQBwOpeMPFMOjzAS6rbz2ds6XE7W2A0pvEVdhIwx8snGODmnyzXt5/Z9z4lttU1fw3a6ldII7i1JndCiiKSWJQCQG8wD5fQ4rvo5vhxCSYpvDEZIAJR4FJwQe3uAfwpHk+G0sjSSSeFmdyWZmaAkk9SaAODkGoadLJd6HY6pptm+mWcTZzNcW8BupTIEznLqjAhOSoI44qjqa+INTsmluptYuI5dL1G2tfMi+aVd6mIyoF4dlz1AztX8fSM/DP18K/nb0Z+Gfr4V/O3oA4PWNQ8a6XHNp9pqepy2UN0Nt75QaXBt1ZV+WM5QSEjhe2CRW7o2s+Km+I1nbX8t1NZywqJVjh8uGM+SCScqQcv6MCCcYrfz8M/Xwr+dvT4J/hzbTxz283hiKaNgySRvArKR0II6UAdjRWL/wmHhn/oYtJ/8AAyP/ABo/4TDwz/0MWk/+Bkf+NAG1RWL/AMJh4Z/6GLSf/AyP/Gj/AITDwz/0MWk/+Bkf+NAG1RWL/wAJh4Z/6GLSf/AyP/Gj/hMPDP8A0MWk/wDgZH/jQBtUVi/8Jh4Z/wChi0n/AMDI/wDGj/hMPDP/AEMWk/8AgZH/AI0AbVFYv/CYeGf+hi0n/wADI/8AGj/hMPDP/QxaT/4GR/40AbVZviH/AJFrVf8Arzm/9ANV/wDhMPDP/QxaT/4GR/41n694t8Ny+HdTjj8QaWztaShVW8jJJ2Hgc0AdBpn/ACCbP/rgn/oIq1VXTONKs/8Argn/AKCKtUAFFFFABRRRQAUUUUAFFFFADJZY4InllkWONFLO7nAUDkknsKyP+Ew8Mf8AQx6R/wCB0f8A8VUnin/kUNa/68J//RbVpw/6iP8A3R/KgDI/4S/wz/0MWkf+Bsf/AMVR/wAJf4Z/6GLSP/A2P/4qtqigDF/4S/wz/wBDFpH/AIGx/wDxVH/CX+Gf+hi0j/wNj/8Aiq2qKAMX/hL/AAz/ANDFpH/gbH/8VR/wl/hn/oYtI/8AA2P/AOKraooAxf8AhL/DP/QxaR/4Gx//ABVH/CX+Gf8AoYtI/wDA2P8A+KraooAxf+Ev8M/9DFpH/gbH/wDFUf8ACX+Gf+hi0j/wNj/+KrapAwYZBBHtQBjf8Jf4Z/6GLSP/AANj/wDiqP8AhL/DP/QxaR/4Gx//ABVbXQZNMWWN1DLIjAnAIOcmgDI/4S/wz/0MWkf+Bsf/AMVR/wAJf4Z/6GLSP/A2P/4qtqkDBhkEEe1AGN/wl/hn/oYtI/8AA2P/AOKo/wCEv8M/9DFpH/gbH/8AFVtUUAYv/CX+Gf8AoYtI/wDA2P8A+Ko/4S/wz/0MWkf+Bsf/AMVW1RQBi/8ACX+Gf+hi0j/wNj/+Ko/4S/wz/wBDFpH/AIGx/wDxVbVFAGL/AMJf4Z/6GLSP/A2P/wCKo/4S/wAM/wDQxaR/4Gx//FVtUUAYv/CX+Gf+hi0j/wADY/8A4qlHi/wySAPEWkkngf6bH/8AFVs1i+L/APkTNb/68Zv/AEA0AbVFFFABWLD/AMjrd/8AXhF/6G9bVYsP/I63f/XhF/6G9AG1RRRQBR1r/kA6j/17Sf8AoJo0X/kA6d/17R/+gijWv+QDqP8A17Sf+gmjRf8AkA6d/wBe0f8A6CKAL1Z+u/8AIvan/wBekv8A6Aa0Kz9d/wCRe1P/AK9Jf/QDQA/SP+QLYf8AXvH/AOgirtUtI/5Alh/17x/+girtABRSEgDJIA96assbuUWRSw6gHkUAPopAQSQCMjrS0AFQpaW0Vw9xHBGsz/ecKAT06n8B+QqXIzjIz1xQSACSQAOTmgBaKQOpXcGG31zxSF1HVgM+9ADqKTIJIBGR1paACiiigAooooAKKKKACiiigArG8Xf8iXrv/YOuP/RbVs1jeLv+RL13/sHXH/otqANmiiigAooooAKKKKAIrn/j1l/3D/Kszwuyp4N0VmYKosIMknH/ACzWtO5/49Zf9w/yrz/xJYXOp/AyCzs7eS4nlsLMLHHGZCeYyflHXAyaAPQkmik+5KjfRgajuWV7CZkYMDG2CDntXjnijwFr1tPpNnoSWyTC3vnnlsLI20UikRfuiVJ2M4UqGznivTtEe2k8G2zWmmy6ZB9lwtlLEY2gwOVKkDoe/frQBL4ZYL4Q0ZmIAFhASSen7ta1tyjHzD5unPWuMv1mf4MstuhknbREEaBdxZvKGAB3+lcDM+saj4xsUvm1ZxbXU4EEcapbxQG0ZY2jkxgOSSMk9TzjFAHt8c0UwJikRwDg7WBwaczBRliAPUmvnzTP7b0XTLyPQbOaIeTbRzXoszaXCoJD5ilMssjhefMRSfr0p2vXninVNBhstRudWnWS2iaCO3tcrcEXJ3ef8uVIjCEfdz17kUAfQVFeYeDNT8U3Pj6/i1W5nNrmfdA6ExKA/wC6MbbQOV9GbPOcYr0+gAooooAKKKKACiiigAooooAKKKKACiiigAooooAKzfEP/Itar/15zf8AoBrSrN8Q/wDItar/ANec3/oBoAsaZ/yCbP8A64J/6CKtVV0z/kE2f/XBP/QRVqgAooooAKKKKACiiigAooooAyfFP/Ioa1/14T/+i2rTh/1Ef+6P5VmeKf8AkUNa/wCvCf8A9FtUEPi/wyII/wDiodK+6P8Al8j9PrQBu0Vi/wDCYeGf+hh0n/wMj/xpD4x8MAEnxFpIA6k3sf8AjQBt0Vi/8Jh4Z/6GLSf/AAMj/wAaP+Ew8M/9DDpP/gZH/jQBtUVi/wDCYeGf+hh0n/wMj/xo/wCEw8M/9DDpP/gZH/jQBtVg+NJdSh8I6g+kPNHfBB5bwwmVx8wzhRyeM9AT7VJ/wmHhn/oYdJ/8DI/8aP8AhMPDP/Qw6T/4GR/40AeU32u+PBo+kNb22upcxrJIzGAyCbEwADARZPyZIDBePU0yQ+ONMa3t9Li1CztWu7yVClq7B5mu2IEihSdhjIIyVHJOa9Z/4TDwz/0MOk/+Bkf+NH/CYeGf+hh0n/wMj/xoA8sv5PG+qQ+LNOki1W5jZGZAIzCpQTDMaZUfMY8gFWYEe5q99ghl+y3XhPwtqOnRJqsMgS4geKN3WGT5hEfuKCVBbAyfXFei/wDCYeGf+hh0n/wMj/xo/wCEw8M/9DDpP/gZH/jQB5IG8XahZRG4m8SyW0E9hcXbTWpSWO48798sShctGqfNxkZA61Ygt/G2hafdHRRqbPdpqci2skH7uB1uAY2X5chmVnYZJ3dq9T/4TDwz/wBDDpP/AIGR/wCNH/CYeGf+hh0n/wADI/8AGgDyifVfH0Ok2MkU2szoLqbYq2jrNKo2bQzGPsd+NyqCO/Fe3oS0allKkgEg9qx/+Ew8M/8AQw6T/wCBkf8AjR/wmHhn/oYdJ/8AAyP/ABoA2qKxf+Ew8M/9DDpP/gZH/jR/wmHhn/oYdJ/8DI/8aANqisX/AITDwz/0MOk/+Bkf+NH/AAmHhn/oYdJ/8DI/8aANqisX/hMPDP8A0MOk/wDgZH/jR/wmHhn/AKGHSf8AwMj/AMaANqsXxh/yJmt/9eM3/oBo/wCEw8M/9DDpP/gZH/jWR4p8U+Hrnwnq8EGu6ZLNJZyokaXaFmYqQAADyaAOxooooAKxYf8Akdbv/rwi/wDQ3rarFh/5HW7/AOvCL/0N6ANqiiigCjrX/IB1H/r2k/8AQTRov/IB07/r2j/9BFGtf8gHUf8Ar2k/9BNGi/8AIB07/r2j/wDQRQBerP13/kXtT/69Jf8A0A1oVQ1tWfQNRVVLMbWUAAZJO00AYeu28918M5YrY3PnGxjK/Zs+ZwFPy45J46CuV1M69f2eqQJPrTSmO5NxGIXVERZF8jyTtGWKcnBJPzZwa9J0lSujWKsCGFvGCD1HyirlAHk+oXev32oalaeRqkllMsqrHLBI2Ck0flkfuwoym4jBOR1OeKt2vhXUodPvdZh8u1vYJ9Qltkt7EpcyM8koXzHyTIuGDAbR/D6V6bRQB5pOmtWGqvBNc619iIBF1bW++aWfy49gYheVyX9BkAEipdHvfEk2vaiupy38UCrc+ckUMh2KHAhMf7vbnbz8rPnJzgivRqKAON8Ux6tJrOnppzXcUciRxy3EEWWRTcRbvmwcfJuz7ZPaubuodVhuJm1CTUpIdgtWecMEeFL9lLMcbdxiKHPG4HPPNerU2SJJomilRXjYYZWGQRQBxckE1x4Z8Z2lvG8sRnuI7aJFJzmJSyqB1+cv075rmNS8OalNcxaFcWd7NYQw20cF2isT5JuEbaWHR4wDz6KD6161DDFbxiOGNY0BJ2qMDJOSfxJJp9AHI+DY9VXVdeOr27pOssMPnlCEuQkePMX2Ixkdjkdq66iigAooooAKKKKACiiigAooooAKxvF3/Il67/2Drj/0W1bNY3i7/kS9d/7B1x/6LagDZooooAKKKKACiiigCO4/49pf9w/yrlPDPizw5D4U0eKXXtMSRLGBWVrpAVIjXIIz1rqrn/j1l/3D/Ks3wr/yJ+if9eEH/otaAI/+Ex8M/wDQw6X/AOBaf41FdeMPDTWkwHiDSyTG2B9rT0+tdBUN3/x5T/8AXNv5UAcjoviLwpP4O0uyv9X0iRPsUCywT3EZGQi8MpPYjvS+Z8Nf73hf/wAgVu+F/wDkUtF/68YP/Ra1q7l3bcjdjOM84oA43zPhr/e8L/8AkCjzPhr/AHvC/wD5Ars6KAOStNQ+H9hcLcWd14dt51yBJC8KMM9eRWl/wmPhn/oYdL/8C0/xrbooAxP+Ex8M/wDQw6X/AOBaf40f8Jj4Z/6GHS//AALT/GtpmVFLMQAO5NAIYAggg9CKAMX/AITHwz/0MOl/+Baf40f8Jj4Z/wChh0v/AMC0/wAa26KAMT/hMfDP/Qw6X/4Fp/jR/wAJj4Z/6GHS/wDwLT/GtuigDE/4THwz/wBDDpf/AIFp/jR/wmPhn/oYdL/8C0/xrbooAxP+Ex8M/wDQw6X/AOBaf40f8Jj4Z/6GHS//AALT/GtuigDE/wCEx8M/9DDpf/gWn+NH/CY+Gf8AoYdL/wDAtP8AGtuigDE/4THwz/0MOl/+Baf40f8ACY+Gf+hh0v8A8C0/xrbooAxP+Ex8M/8AQw6X/wCBaf41n674u8Ny+HtTjj1/TGdrSUKou0JJ2Hgc11dZviH/AJFrVf8Arzm/9ANAFjTONKs/+uCf+girVVdM/wCQTZ/9cE/9BFWqACiiigAooooAKKKKACiio/Pi8/yPNTztu/y9w3bc4zj0oAzPFX/In63/ANeE/wD6LatCKRI7OJpHVV2LyxwOlZ/ir/kT9b/68J//AEW1c78RNKu9Y8K6ZaWVolzIdQtWZJYWljCg8l1HOwd6AO2EsZAIkU5GRg9R61k+KnV/BetsjBlOn3GCDkH921eTa78PfEdg9hZ6TMZiIL2e4W3haKAq7xsbVDkmMMAQOc9a9Hu5LeT4WXrWmny6dB/ZMwSzlhMTQfu2+UqQMY/+vQB00bqlsjOwUbRkk4p5dVIBYAnoCetcx46Wd/Ad0ttGZJiIdqhdxP7xc8fTNeYXf9rax4nmOovrM7JDqkMiIqpFCrACIW78A7lA6nkj60Ae6xTRTpvhkSRc4yjAinBlLFQwLDqM9K8CsLnVtJ0i+g0q1uLeKae1j+3WlobORgFfdvh+fGCFBZF53cnvRHqHi0WVxqIN3BdXi6ct/OkZSbYscocqApOQ2zO1SRn3oA9+qMTwkuBKmU++Nw+X6+leNWOueMv+Ej0aK6vruVJbWNZQIvKjQlGy75BU87cglWB6DnFZlnZ2LeD7uxj8OX8XiKLSriK+vGyomkJ6Zz+/LHkdcUAe+ZGM9qQMrEgMCR1APSvEry98TXeoX1gt7qiySLcwvAoVbRbXyD5TRvj/AFhfA655IxxVfRI9asb2DU7K71KNv+JPBJFIuBOmzZOZAVydnTPG3qaAPdqK8Ft9c8dnS9Ta61O8in/dmZBAW8t/NO4RMFyFKf3A+ODmvXPBd5e33hDTbjUVmW8aL96JyC+QSOcAc/gD6igDeooooAKKKKACiiigAooooAKKKKACsTxl/wAiVrf/AF5S/wDoJrbrE8Zf8iVrf/XlL/6CaANuiiigArFh/wCR1u/+vCL/ANDetqsWH/kdbv8A68Iv/Q3oA2qKKKAKOsgnQtQABJNtJgD/AHTWNpHi7w3Hotgj6/piutvGGU3aAg7Rwea6eigDE/4THwz/ANDDpf8A4Fp/jR/wmPhn/oYdL/8AAtP8a26KAMT/AITHwz/0MOl/+Baf40f8Jj4Z/wChh0v/AMC0/wAa26KAMT/hMfDP/Qw6X/4Fp/jR/wAJj4Z/6GHS/wDwLT/GtuigDE/4THwz/wBDDpf/AIFp/jR/wmPhn/oYdL/8C0/xrbooAxP+Ex8M/wDQw6X/AOBaf40f8Jj4Z/6GHS//AALT/GtuigDE/wCEx8M/9DDpf/gWn+NN/wCE08Lf9DHpPr/x+R/41u1wtvolyvxIuIDJH/ZCW0d4sYJ3bzLIQh/2Q5Z/qAOnFAG//wAJj4Z/6GHS/wDwLT/Gj/hMfDP/AEMOl/8AgWn+NbdFAGJ/wmPhn/oYdL/8C0/xo/4THwz/ANDDpf8A4Fp/jW3RQBif8Jj4Z/6GHS//AALT/Gj/AITHwz/0MOl/+Baf41t0UAYn/CY+Gf8AoYdL/wDAtP8AGj/hMfDP/Qw6X/4Fp/jW3RQBif8ACY+Gf+hh0v8A8C0/xo/4THwz/wBDDpf/AIFp/jW3RQBif8Jj4Z/6GHS//AtP8ayvFHivw7c+Etagg13TZZpLCdERLpCzMY2AAGeSa7CigAooooAKKKKACiiigCK5/wCPWX/cP8qzfCn/ACJ+if8AXhB/6LWtK5/49Zf9w/yrN8Kf8ifon/XhB/6LWgDXqG7/AOPKf/rm38qmqG7/AOPKf/rm38qAOetmuU+GNq1lJLHcjSY/KeKLzHVvKGCF7n2HNcgbzXY9OeeSz1qRvszxQyRRys5czLtbdsEgQDJIYZwO/FegeF/+RS0X/rwg/wDRa1rUAeY2s3iePxDptul5qU9oi2wSae2lXz0589pFKYVs5xvIIwuAc87niifVIvDemnTHvzE06i6lZJBcCLDdQiFx823OFz+Ga7KigDzaBPFskUV3NdakbmP7KixLGVjcOGEhZcdRlSfQjtSW914h1qWyg3a1aQeVax3MnkPCxkEU5lwWX++IwT9MdRXpVFAHmdqmtwS6VDq09/cWs81jLcPdrgCU+dlRwABvWDK9iR6113hDd/YbjOYVvLlbc/8ATISts/DHT2rblhjnjMcqK6HGVYZHHIpY40hjWOJFRFGFVRgAUAOooooAKKKKACiiigAooooAKKKKACiiigArN8Q/8i1qv/XnN/6Aa0qzfEP/ACLWq/8AXnN/6AaALGmf8gmz/wCuCf8AoIrKt/GOk3TXKxvNvttQGnSoUwRKX2A/7pOefY1q6Z/yCbP/AK4J/wCgiuTm8Czve2d5DexxTRao93OApxNAZzMqH/aUkYPu3rQB21FFFABRRRQAUUUUAFYKaSYvHUmqx2yrHLp/kyTDGWcSAgHv0reooAyPFX/In63/ANeE/wD6Laq1v4x8Mi2iB1/TM7B/y9J6fWrPio/8UhrY7/YJ/wD0W1aEcscVnE8siouxcsxwOlAGX/wmXhn/AKGDTP8AwKT/ABrJ8T+LfDs/hLWYotd055HsZ1VVuUJYmNsAc11iXVvIMpPEwAJyrg8Dqay/FTq/grW3RgynTpyCDkH921AFKbxJ4Pv7FLe91bR7iEhSY5po3XI9iapef8N/Xwz+UNdcjrHbI8jhVCjJY4FPLqGVSwDN0GeTQBx3n/Df18M/lDR5/wAN/Xwz+UNdclzbyKWSeJgG2khwefT61KSAMk4FAHGef8N/73hn8oaPP+G/97wz+UNdkrq2drA4ODg9DS0AcZ5/w3/veGfyho8/4b+vhn8oa7OigDjPP+G/97wz+UNaFp4l8Hafbi3stX0a2hBJEcM8aKCevAOK6OigDE/4TLwz/wBDBpn/AIFJ/jR/wmXhn/oYNM/8Ck/xrbooAxP+Ey8M/wDQwaZ/4FJ/jR/wmXhn/oYNM/8AApP8a26KAMT/AITLwz/0MGmf+BSf40f8Jl4Z/wChg0z/AMCk/wAa26KAMT/hMvDP/QwaZ/4FJ/jR/wAJl4Z/6GDTP/ApP8a26KAMT/hMvDP/AEMGmf8AgUn+NH/CZeGf+hg0z/wKT/GtuigDE/4TLwz/ANDBpn/gUn+NY/ivxX4eufCWrwQa3p8s0lpIiIlwhZmKkAAZ5NdnWJ4y/wCRK1v/AK8pf/QTQBPqviCw0W8022vXdG1CYwQsFyobGRuPbPAHuRVnT9Qg1KGSWDftjnkgbcMHdG5RvwyDWfrvh6PXbuyNwVNrCsySxnqwdNowexB5zR4V0a60HQxZXt4Ly48+aVpwuN++RmBI9cHn3oA26xYf+R1u/wDrwi/9DetqsWH/AJHW7/68Iv8A0N6ANqiiigAooooAKKKKACiiigAooooAKKKKACiiigArDi/5Hq6/7BkP/o2WtysOL/kerr/sGQ/+jZaANyiiigDL1LxBYaVq2maddu6TakzpA23K7lxwx7Z3AD1JqzpuowapZi6t9/l+ZJH84wco7I36qazNe8Npr19avPIBbxW88LKOH3OYyrKexUpn64qbwtpN1ofh23sL26S6ukeV5JkXaHLyM+cdvvUAbFFFFABRRRQAUUUUAFFFFABRRRQAUUUUAFFFFAEVz/x6y/7h/lWb4U/5E/RP+vCD/wBFrWlc/wDHrL/uH+VZvhT/AJE/RP8Arwg/9FrQBr1Dd/8AHlP/ANc2/lU1Q3f/AB5T/wDXNv5UAZ/hf/kUtF/68IP/AEWta1crE1+nwvtW0vf9tGlxGLyxls+Wudo7tjOPfFc7eS6yFUWFx4jMPlSHTTLA+57jeMCbK52Y6eZgY3egoA9LVlYZUgjpwaWvMII9ftNQMKDU4H+1K1lHDC3kPuuX84ynGMbMEbiODlea6nwtFexWVk2p3OqSXsyyySLODsXLABTx8uABgfU80AdNRXnN5N4nhGpQyLqRgs5BBFNEGzOsku/zMopYhI9qnaM5Jx0zVKzfxXcafJc3U+tRi3gt4njSJlZlNzIJnUFdzSCILjvyDjOKAPUtylioI3AZIzyKWvNY7HVxqkuq2cmt/u0sEiWdCrXEf2qQOJBjLYjbPOCAQTg1Wsp/FN9fS2zNrNtDczQlnMcm6L98RIAzIFHyEfd+XuCTmgD09p4UYq0sakcEFgKcJEKFw6lRn5geK89/spdY0trGax8+6uNZuILq4dNzQRB2JO7tmNEVT/tKa07e3c6b4xtLSMtaiV47aJFz832dN6qO43k/jmgDrmmiVQzSoARkEsORTgylioILDqM8ivH77wxqbW9roM2nXdxpkdnAsMqqSVja4gLRMeoZNrEf7OPQ12PhC21a38Qa4uqwSboo7a3iu2X5bpUEhDg+uGXcOxzQB2FFFFABRRRQAUUUUAFFFFABWb4h/wCRa1X/AK85v/QDWlWd4g/5FvVP+vOX/wBANAE2lkHSbIg5HkJ/6CKt1514Z0bxWhtbiz1C207TDAM201kT5hwMMI/NOz8CM55FdV9i8S/9BzTv/BY3/wAeoA26KxPsXiX/AKDmnf8Agsb/AOPUfYvEv/Qc07/wWN/8eoA26wb251e48Rvp2n3dpaxRWiTs01q0xYs7rjh1wBt9+tP+xeJf+g5p3/gsb/49T9N0m+t9Wn1HUNQhupZIEgVYbYwhVVmbJy7ZPze3SgBn2LxN/wBBvTf/AAWP/wDHqPsXib/oN6b/AOCx/wD49W3RQBifYvE3/Qb03/wWP/8AHqPsXib/AKDem/8Agsf/AOPVt0UAefeLNO8S+TdXEmp2ckCaNfrI6WDKoyIjt/1p+YhTg9tp4OatfEXSrrWvBlnY2lu0zve2hYeT5oVRIu5mXuoHJ9q6DxV/yJ+t/wDXhP8A+i2qtb+MfDQtogdd0/Owf8vC+n1oA8y8T+Btcg1a3h0q1imtrfSna8itLT7NDfL9oV2txtPyswGcZ5x6GvSdXkhl+G+oyW9pJaQtpUpS3kiMTRDyj8pU/dI6Yqx/wmXhr/oO6f8A+BC/41leJ/Fvh2fwlrMUWt2DyPYzqqrOpLExtgDmgCfx0s7eA7pbZC8xEO1Qu4n94uePpmvLb/8A4SDWPEVwxutQN+kGqRKZtq20G4AQiFxgfMoHOeuOnNery+JfCF9ZJb3mq6TcRYUmOaVHXI9jVP7V8OvXw5/3xD/hQBwEMWj3NhZ/2J4butNkhutNF08v7sSMkwLfu84YqASZMdD1qjf3nijVNJ1a2nvtXedraR76JiqxrMs6mNbYgfMCm7IBORjvXpv2r4devhz/AL4h/wAKPtXw69fDn/fEP+FAHBBvEOmXV/f6FqF6Xu7+7CW0xURsptwUlYEfeLgDJOM8VTOteMU8J7l1bUncXgIBjInI8rlC23cF39DsxnjOK9J+1fDr18Of98Q/4Ufavh16+HP++If8KAOl0ieW50axnnVlmkgRpFYgkMVGQSOM5z04q5XP2/irwpawJBb6xpcUKDCxxzIqqPYDpUn/AAmXhr/oO6f/AOBC/wCNAG5RWH/wmXhr/oO6f/4EL/jR/wAJl4a/6Dun/wDgQv8AjQBuUVh/8Jl4a/6Dun/+BC/40f8ACZeGv+g7p/8A4EL/AI0AblFYf/CZeGv+g7p//gQv+NH/AAmXhr/oO6f/AOBC/wCNAG5RWH/wmXhr/oO6f/4EL/jR/wAJl4a/6Dun/wDgQv8AjQBuUVh/8Jl4a/6Dun/+BC/40f8ACZeGv+g7p/8A4EL/AI0AblFYf/CZeGv+g7p//gQv+NH/AAmXhr/oO6f/AOBC/wCNAG5WF41bb4H11uOLGY8nA+4aX/hMvDX/AEHdP/8AAhf8ax/Fnirw/d+ENYt4Nasnmls5URUnUsWKkAD3oAsWXxF8Oz3bWV3qVpaXaqX2m4V43XOMq44I9jg+1aH/AAmXhn/oPad/4Er/AI1esNJs9OZnhjLTv9+eVi8j/Vjz+HSr1AGH/wAJl4Z/6D2nf+BK/wCNVtK1Ox1Xxdez6fdw3US2USs8LhlB3ucZHeulooAKKKKACiiigAooooAKKKKACiiigAooooAKKKKACsOL/kerr/sGQ/8Ao2WtysOL/kerr/sGQ/8Ao2WgDcooooAKKKKACiiigAooooAKKKKACiiigAooooAKKKKACiiigCK5/wCPWX/cP8qzfCn/ACJ+if8AXhB/6LWtO4GbaUDrsP8AKuU8N+LPD9t4W0iCbWLOOWOyhR0aUAqwQAgjsaAOvqG6BNnOAMkxtgfhWT/wmXhr/oOWH/f4Uf8ACZeGv+g5Yf8Af4UAWPDUbxeFtIjkVkdbKFWVhgghBkGtSsP/AITLw1/0HLD/AL/Cj/hMvDX/AEHLD/v8KANyisP/AITLw1/0HLD/AL/Cj/hMvDX/AEHLD/v8KANyisP/AITLw1/0HLD/AL/Cj/hMvDX/AEHLD/v8KANyisP/AITLw1/0HLD/AL/Cj/hMvDX/AEHLD/v8KANlYo0d3RFVpDlyBgscYyfwAH4URxRxKVjRUBJYhRjJJyT+JrG/4TLw1/0HLD/v8KP+Ey8Nf9Byw/7/AAoA3KKw/wDhMvDX/QcsP+/wo/4TLw1/0HLD/v8ACgDcorD/AOEy8Nf9Byw/7/Cj/hMvDX/QcsP+/wAKANyisP8A4TLw1/0HLD/v8KP+Ey8Nf9Byw/7/AAoA3KKw/wDhMvDX/QcsP+/wo/4TLw1/0HLD/v8ACgDcorD/AOEy8Nf9Byw/7/Cj/hMvDX/QcsP+/wAKANys3xD/AMi1qv8A15zf+gGqv/CZeGv+g5Yf9/hVDXPFvh6fw/qUUWs2TyPayqqrMCWJQ4AoA6HTP+QTZ/8AXBP/AEEVaqrpoK6XZgggiBAQf90VaoAKKKKACiiigAooooAKKKKAMjxV/wAifrf/AF4T/wDotqvpNHDZRSTSJGmxcs7ADp6mqHir/kT9b/68J/8A0W1c/wDEXSbrWvBllY2kBmke9tCwEPmhVEi7mZe6gcn2oA7FLy2lBMdxC4ALEq4PA6n6Vl+KXWTwVrbowZW06chlOQR5bV5b4o8C65Dq9vFpdtHPbW2lO13Fa2n2aG+X7Qrtb/KflZgM4zzt9DXpGsSRTfDfUZILSS0ibSpSlvJF5bRDyj8pXsR0xQBvrIkdqjyOqqFGWY4FPaSNGCs6qxBIBOCcda5fx0Jm8B3S267piIdq4Bz+8XPB9s15ddnUdX8TTNqUuq3LLDqkMiiREhjVwBELd+nzKB1PJA96APdoLiC5j3280cqZxujYMM/hTw6M7IHUsuNyg8jPTNeA2V3qemaTfQaXDNbxTT2sf262gFnMwCvu3xKW+6QoLIBndycc0keoeKRYz3/n3MF1drpy386fJMUSOUPtABOQ2zO0E80AfQNFeMaNrniv/hL/AA+l7qF3dQyQwrOgCxIMq25nxlSc7cgkMD064r2egAooooAKKKKACiiigAooooAKKKKACiiigAooooAKxPGP/Ila3/15S/8AoJrbrE8Zf8iVrf8A15S/+gmgDbooooAKKKKACiiigAooooAKKKKACiiigAooooAKKKKACiiigArDi/5Hq6/7BkP/AKNlrcrDi/5Hq6/7BkP/AKNloA3KKKKACiiigAooooAKKKKACiiigAooooAKKKKACiiigAooooAKKKKACiiigAooooAKKKKACiiigAooooAKKKKACiiigAooooAKKKKACiiigAooooAKKKKACiiigAooooAKKKKACiiigAooooAyPFX/ACJ+t/8AXhP/AOi2qtb+MfDYtogdbss7B/y1HpVnxV/yJ+t/9eE//otq07fm2i/3B/KgDH/4TLw3/wBBux/7+isrxP4t8PT+E9Zii1mzeR7GdVUSjJJjbArsax/Fn/Im65/2D7j/ANFtQBSk8TeEryySC71PTJ4sAmOVlZcj2NVPt3w99dA/79R/4V1kR/cRkn+EcmpCQBknFAHH/bvh766B/wB+o/8ACj7d8PfXQP8Av1H/AIV17OqDLMFGcZJxUMV5azyvFDcwySJ95UcEr9QOlAHMJqPgCN1dH0JXUhlZY4wQR0IOK0v+Ey8N/wDQbsf+/oraV1YsFYEqcEA9DTqAMP8A4TLw3/0G7H/v6KP+Ey8N/wDQbsf+/ora3rv2bhvxnbnnHrQzoilmZVCjJJOMCgDF/wCEy8N/9Bux/wC/oo/4TLw3/wBBux/7+itkzRCIymRPLAyX3DA/GkaeFCA8qKTjALAZzwPzoAx/+Ey8N/8AQbsf+/oo/wCEy8N/9Bux/wC/orbDqxYKwJU4YA9D70tAGH/wmXhv/oN2P/f0Uf8ACZeG/wDoN2P/AH9FblFAGH/wmXhv/oN2P/f0Uf8ACZeG/wDoN2P/AH9FblFAGH/wmXhv/oN2P/f0Uf8ACZeG/wDoN2P/AH9FblFAGH/wmXhv/oN2P/f0Uf8ACZeG/wDoN2P/AH9FblFAGH/wmXhv/oN2P/f0Vj+K/FegXPhLV4INXs5JZLSRERZQSxKkACu0rE8Y/wDIla3/ANeUv/oJoA26KKKACiiigAooooAKKKKACiiigAooooAKKKKACiiigAooooAKw4v+R6uv+wZD/wCjZa3Kw4v+R6uv+wZD/wCjZaANyiiigAooooAKKKKACiiigAooooAKKKKACiiigAooooAKKKKACiiigAooooAKKKKACiiigAooooAKKKKACiiigAooooAKKKKACiiigAooooAKKKKACiiigAooooAKKKKACiiigAooooAKKKKAMjxV/wAifrf/AF4T/wDotq0rb/j1i/3B/Ks3xV/yJ+t/9eE//otq0rb/AI9Yv9wfyoAlrH8Wf8ibrn/YPuP/AEW1bFZPiiN5vCWsxRIzyPYzqqqMliY2wAKAKXi+0lvfBs0UC3LSAwvi1LCQhZFJxt5PAPArjb6312+tbyKQ647gu96m2RUytzGYvIwOf3Yc4TOR15xXqUIIhjB67R/Kn0AeVSN4ivtWuoZbXVGtJZg3lzRSMqMl3EVwSAo/d7j8vGOpJFS2nhPVbbw7LqcUj2+owrd/ZYba0EcwaSRgC7ZJfg5AwB0NeoUUAebz22s2WtS27Sa62niR/s8tqC0kkwWLYZGxyn+s5b5cg57U7Q5PEb6rqJ1eTU1iCzeckUMnDeaPK8okbfuZ+5kEE7ua9GooA47xNa6tc+JLGOza9itJFiSea2ypC+YSw3duK5sWmqQXiTamNReN/scEslyWKNGl5MPm/h3YMJ56hie5r1WmyRpLG0ciK6MMFWGQRQBw09pPfeBPFVpDC9xHLcXSW0SLncpPIUDqN26sLUvC2p3WsDRrq0updPtzaxW97HnPkiV2X5uzR5Az7A969WjjSJAkaKiDoqjAFOoA5TwXDqsc+uvrFuYrlr1V8zbhbgJDGnmL7Ntz7HI7V1dFFABRRRQAUUUUAFFFFABRRRQAVieMv+RK1v8A68pf/QTW3WJ4y/5ErW/+vKX/ANBNAG3RRRQAUUUUAFFFFABRRRQAUUUUAFFFFABRRRQAUUUUAFFFFABWHF/yPV1/2DIf/RstblYcX/I9XX/YMh/9Gy0AblFFFABRRRQAUUUUAFFFFABRRRQAUUUUAFFFFABRRRQAUUUUAFFFFABRRRQAUUUUAFFFFABRRRQAUUUUAFFFFABRRRQAUUUUAFFFFABRRRQAUUUUAFFFFABRRRQAUUUUAFFFFABRRRQAUUUUAZPihWfwlrSopZmsZwABkk+W1VYPGHh5beIHV7YEIAfm9q6CigDD/wCEy8O/9Be2/wC+qP8AhMvDv/QXtv8AvqtyigDD/wCEy8O/9Be2/wC+qP8AhMvDv/QXtv8AvqtyigDD/wCEy8O/9Be2/wC+qP8AhMvDv/QXtv8AvqtyigDD/wCEy8O/9Be2/wC+qP8AhMvDv/QXtv8AvqtyigDD/wCEy8O/9Be2/wC+qP8AhMvDv/QXtv8AvqtyigDD/wCEy8O/9Be2/wC+qP8AhMvDv/QXtv8AvqtyigDD/wCEy8O/9Be2/wC+qP8AhMvDv/QXtv8AvqtyigDD/wCEy8O/9Be2/wC+qP8AhMvDv/QXtv8AvqtyigDD/wCEy8O/9Be2/wC+qP8AhMvDv/QXtv8AvqtyigDD/wCEy8O/9Be2/wC+qP8AhMvDv/QXtv8AvqtyigDD/wCEy8O/9Be2/wC+qP8AhMvDv/QXtv8AvqtyigDD/wCEy8O/9Be2/wC+qyfFHijRL3wpqtrbalBLPNayJHGhJZ2KkAAepNdlRQAUUUUAFFFFABRRRQAUUUUAFFFFABRRRQAUUUUAFFFFABRRRQAVhxf8j1df9gyH/wBGy1uVhxf8j1df9gyH/wBGy0AblFFFABRRRQAUUUUAFFFFABRRRQAUUUUAFFFFABRRRQAUUUUAFFFFABRRRQAUUUUAFFFFABRRRQAUUUUAFFFFABRRRQAUUUUAFFFFABRRRQAUUUUAFFFFABRRRQAUUUUAFFFFABRRRQAUUUUAFFFFABRRVTUNTstKgWe/uY7eNmCKznqx7D34oAt0Vh/8Jj4e/wCgpD+R/wAKP+Ex8Pf9BSH8j/hQBuUVh/8ACY+Hv+gpD+R/wo/4THw9/wBBSH8j/hQBuUVh/wDCY+Hv+gpD+R/wo/4THw9/0FIfyP8AhQBuUVh/8Jj4e/6CkP5H/Cj/AITHw9/0FIfyP+FAG5RWH/wmPh7/AKCkP5H/AAo/4THw9/0FIfyP+FAG5RWH/wAJj4e/6CkP5H/Cj/hMfD3/AEFIfyP+FAG5RWH/AMJj4e/6CkP5H/Cj/hMfD3/QUh/I/wCFAG5RWH/wmPh7/oKQ/kf8KP8AhMfD3/QUh/I/4UAblFYf/CY+Hv8AoKQ/kf8ACj/hMfD3/QUh/I/4UAblFYf/AAmPh7/oKQ/kf8KP+Ex8Pf8AQUh/I/4UAblFYf8AwmPh7/oKQ/kf8KP+Ex8Pf9BSH8j/AIUAblFYf/CY+Hv+gpD+R/wo/wCEx8Pf9BSH8j/hQBuUVh/8Jj4e/wCgpD+R/wAKP+Ex8Pf9BSH8j/hQBuUVh/8ACY+Hv+gpD+R/wo/4THw9/wBBSH8j/hQBuUVh/wDCY+Hv+gpD+R/wo/4THw9/0FIfyP8AhQBuUVh/8Jj4e/6CkP5H/Cj/AITHw9/0FIfyP+FAG5RWH/wmPh7/AKCkP5H/AAo/4THw9/0FIfyP+FAG5RWH/wAJj4e/6CkP5H/Cj/hMfD3/AEFIfyP+FAG5RWH/AMJj4e/6CkP5H/Cj/hMfD3/QUh/I/wCFAG5RWH/wmPh7/oKQ/kf8KP8AhMfD3/QUh/I/4UAblYcX/I9XX/YMh/8ARstH/CY+Hv8AoKQ/kf8ACqulajaar4yvLixmE8K6fChdQcBvMkOMnvigDpqKKKACiiigAooooAKKKKACiiigAooooAKKKKACiiigAooooAKKKKACiiigAooooAKKKKACiiigAooooAKKKKACiiigAooooAKKKKACiiigAooooAKKKKACiiigAooooAKKKKACiiigAooooAKKKKACsXXv+P3RP+v8f+i3rarF17/j80T/AK/x/wCi3oA2qKKp6pqVto+mXGoXZcQQIXfYhdsD0A5NAFyiorW4S7tIbmPPlzIsi5GDgjIqWgAooooAKKKKACiiigAooooAKKKKACiiigAooooAKKKKACiiigAooooAKKKKACiiigAooooAKKKKACiiigAooooAKKKKACiiigAooooAKKKKACiiigAooooAKKKKACiiigAooooAKKKKACiiigAooooAKKKKACiiigAooooAKKKKACiiigAooooAKKKKACiiigAooooAKKKKACimySJDE8sjBURSzMegA6msdfFmhsoZb9SCMgiN+R+VAG1RWN/wleif8/w/79v/AIUf8JXon/P8P+/b/wCFAGzRWN/wleif8/w/79v/AIUf8JXon/P8P+/b/wCFAGzRWN/wleif8/w/79v/AIUf8JXon/P8P+/b/wCFAGzRWN/wleif8/w/79v/AIUf8JXon/P8P+/b/wCFAGzRWN/wleif8/w/79v/AIUf8JXon/P8P+/b/wCFAGzRWN/wleif8/w/79v/AIUf8JXon/P8P+/b/wCFAGzRWN/wleif8/w/79v/AIUf8JXon/P8P+/b/wCFAGzRWN/wleif8/w/79v/AIUf8JXon/P8P+/b/wCFAGzWLr3/AB+aJ/1/j/0W9L/wleif8/w/79v/AIVzXiLxA9xqWmvp+oWH2eK6V/3trMzIdjAliCBjn+VAHfVW1G1N9pl3aB9hnheINjO3cCM/rWZD4q0kQxia/jMu0bykThS2OcAjpT/+Er0T/n+H/ft/8KANGwtjZ6da2pbeYYkjLAYzgAZ/SrFY3/CV6J/z/D/v2/8AhR/wleif8/w/79v/AIUAbNFY3/CV6J/z/D/v2/8AhTX8XaDFG0kmooiICzMyMAAOpJxQBt0UUUAFFFFABRRRQAUUUUAFFFFABRRRQAUUUUAFFFFABRRRQAUUUUAFFFFABRRRQAUUUUAFFFFABRRRQAUUUUAFFFFABRRRQAUUUUAFFFFABRRRQAUUUUAFFFFABRRRQAUUUUAFFFFABRRRQAUUUUAFFFFABRRRQAUUUUAFFFFABRRRQAUUUUAFFFFABRRRQAUUUUAUtZ/5Aeof9e0n/oJp2lf8giy/64J/6CKbrP8AyA9Q/wCvaT/0E07Sv+QPZf8AXvH/AOgigC3RRRQAUUUUAFFFFABRRRQAUUVx/wAQE1VrTTfsH9qmzFyftq6S225KbG27T6b9uf8ADNAHUm9tFn8g3UIm3BPLMg3biMgY9cc1PXjdxo3i1dUe7sbO8F28sDrNcBCxYWTrlyPlyHIBI4zTdE0rxteWtlaX994hht5L5ftDljHLGvkNvw5ZmKF9voM9OKAPZQ6lygYFgMkZ5FLXiEel+MI7e+vZE1yPVLrSbJGmiBclklYSKQGBDbdp4+bBYjrXqHgltUbwhYf2zDPFfBWEizuXc/McEk89MdefWgDfooooAKKKKACiiigAooooAKxvF/8AyJWvf9g64/8ARbVs1jeL/wDkSte/7B1x/wCi2oA2R0ooHSigAooooAKKKKACiiigAooooAKKiurmGytJrq5kWKCFDJJI3RVAySfwrL/4SrRf+fw/9+X/APiaANmisb/hKtF/5/D/AN+X/wDiaP8AhKtF/wCfw/8Afl//AImgDZorG/4SrRf+fw/9+X/+Jo/4SrRf+fw/9+X/APiaANmisb/hKtF/5/D/AN+X/wDiaP8AhKtF/wCfw/8Afl//AImgDZorG/4SrRf+fw/9+X/+Jo/4SrRf+fw/9+X/APiaANmisb/hKtF/5/D/AN+X/wDiaP8AhKtF/wCfw/8Afl//AImgDZorG/4SrRf+fw/9+X/+Jo/4SrRf+fw/9+X/APiaANmisb/hKtF/5/D/AN+X/wDiaP8AhKtF/wCfw/8Afl//AImgDZorG/4SrRf+fw/9+X/+Jo/4SrRf+fw/9+X/APiaANmisb/hKtF/5/D/AN+X/wDiaP8AhKtF/wCfw/8Afl//AImgDZorG/4SrRf+fw/9+X/+Jo/4SrRf+fw/9+X/APiaANmisb/hKtF/5/D/AN+X/wDiaP8AhKtF/wCfw/8Afl//AImgDZorG/4SrRf+fw/9+X/+Jo/4SvRMgG+C5IGWjcDJOByR60AbNFFFABRRRQAUUUUAFFFFABRRRQAUUUUAFFFFABRRRQAUUUUAFFFFABRRRQAUUUUAFFFFABRRRQAUUUUAFFFFABRRRQAUUUUAFFFFAFLWf+QHqH/XtJ/6CaydM8UaOmlWam7bIgQf6mT+6P8AZrU1z/kX9S/69Zf/AEA1HY3ltY+HbGe8uYreEW8QMkzhFGVHc0AQ/wDCVaN/z9t/34k/+JpG8WaIiM73hVVBJJhkAA9fu1oRalYzrE0V7bSLKC0ZSVSHA6kc8gd6qavcwXfhXUZ7aaOaFrSbbJG4ZT8p6EUARL4s0VlDLeEqRkEQycj/AL5pf+Eq0b/n7b/vxJ/8TVqwnit9BtJp5UiiW3jLPIwUD5R1Jq21xAksUTzRrJLny0LAF8DJwO+BzQBlf8JVo3/P23/fiT/4mj/hKtG/5+2/78Sf/E1ci1jTJ0keLUbORYnEcjJOpCMTgKeeCTxirMM8NzH5kEqSpkruRgwyDgjI9DQBlf8ACVaN/wA/bf8AfiT/AOJo/wCEq0b/AJ+2/wC/En/xNbDusalnYKo5JJwBS0AY3/CVaN/z9t/34k/+Jo/4SrRv+ftv+/En/wATWzRQBjf8JVo3/P23/fiT/wCJo/4SrRv+ftv+/En/AMTWzRQBjf8ACVaN/wA/bf8AfiT/AOJo/wCEq0b/AJ+2/wC/En/xNbNFAGN/wlWjf8/bf9+JP/iaP+Eq0b/n7b/vxJ/8TWzRQBjf8JVo3/P23/fiT/4mj/hKtG/5+2/78Sf/ABNbNFAGN/wlWjf8/bf9+JP/AImj/hKtG/5+2/78Sf8AxNbNFAGN/wAJVo3/AD9t/wB+JP8A4mj/AISrRv8An7b/AL8Sf/E1s0UAY3/CVaN/z9t/34k/+JrJ8VeJtJm8Ia3FHdMXewnVR5LjJMbf7NdfWN4v/wCRK17/ALB1x/6LagDZHQUUi/dH0paACiiigAooooAKKKKACiiub03xrpmqJGYI7hXa/bTzG6gMjgMQx5+6QhII9frgAteMP+RK13/sHz/+i2rarF8Yf8iVrv8A2D5//RbVtUAFFFFABRRRQAUUUUAFFFFABUbzxRyxxPKiySZ2IWALY5OB3xXnPxNXxW+o6ePD0ephI4jIXs2O0yb1+VgCB93d97I9s1zeoaZ40uPEU17Dbay2pQf2h5c0jg2yBkxD5AJ+U44+vWgD2pJ4ZJZIklRpIiBIisCUJGRkduOakrxXRPD3iKTVpfJHiOxs7zU4HluLqXFw0S2pB3tk8bwF9cYplnZfEJdM1kXN1ra3DKm4BN43+dyYj5mcbODsA46c0Ae20V42y+Pv+KalWDVvMjQLNbmY7CfOPzSPnOdmDhweOM5qtaWXxCGma0Lm61tbhgm4CPcN/nZJiPmZ2lOCEA46c0Ae20VgeCjqh8IaeNZhmivwrCRZ5C74DHaSTzyMHnn15rfoAKKKKACiiigAooooAKx/FX/It3f/AAD/ANDWtisbxV/yLd3/AMA/9DWgDZooooAKKKKACiiigAooooAKKKKACiiigAooooAKKKKACiiigAooooAKKKKACiiigAooooAKKKKACiiigAooooAKKKKACiiigAooooAoa5/yL+pf9esv/oBrkvGGk32tfDrTLPT4RLOZbJsGMSKqhlJYqeoA5Irrdc/5AGpf9esv/oJrG0rxbosej2KNcy5W3jB/0WX+6P8AZoA8+1/4X6xG1naaTeM8kpvbm5mjhEMO51TEIVT8iPtxwfWvRIpTL8OZWOltpbDTpFNkyhfJIQgqAOMccHuMVZ/4TDRP+fqX/wABZf8A4mqGt+LNGl0DUo0uZSzWsoGbaUc7D/s0AReKjIPhZc+S6pKbKMIWdV5O3HLECvLb2a91TxQzS6wwuEOoxrcS6hF9kiSSErB5Xz/LngHjr1r1mx8UaC+jWkM8rOBBGCrWkrDIUf7NP/t3wr/zzj/8AJP/AIigDyxLrRb3QoILHQ7PS7y1Swhnme8hRpilxGzgKrEOoClt55/M1A+p69FqdkIdfW2tRcytGLe7iYBjdMSZV8xRtMeMFsjGcDNetf274V/55x/+AEn/AMRR/bvhX/nnH/4ASf8AxFAHk+qPqF5ot/FL4hluGvrS+Etu+qRlFZZgYAo3cZUH6g4r3LSHjl0WxkhZ2ia3jKM7bmI2jGT3PvWL/bvhX/nnH/4ASf8AxFWE8W6DGgRJ5FVRgKtpKAP/AB2gDeorD/4TDRP+fqX/AMBZf/iaP+Ew0T/n6l/8BZf/AImgDcorD/4TDRP+fqX/AMBZf/iaP+Ew0T/n6l/8BZf/AImgDcorD/4TDRP+fqX/AMBZf/iaP+Ew0T/n6l/8BZf/AImgDcorD/4TDRP+fqX/AMBZf/iaP+Ew0T/n6l/8BZf/AImgDcorD/4TDRP+fqX/AMBZf/iaP+Ew0T/n6l/8BZf/AImgDcorD/4TDRP+fqX/AMBZf/iaP+Ew0T/n6l/8BZf/AImgDcorD/4TDRP+fqX/AMBZf/iaP+Ew0T/n6l/8BZf/AImgDcrG8X/8iVr3/YOuP/RbUz/hMNE/5+pf/AWX/wCJrI8U+KtHn8Ia1DHcyl5LCdVBtpRkmNgOStAHZL90fSoVvbV717NbiNrlEEjRBgWVScAkdhmpl+6PpWLFpLQ+NJ9Ujt4khmsVieRQAzyByee54I5oA26KKKACiiigAooooAK46HwIsF/o17HflZbCeSSfbHxcoxkKqeeCpkODz39a7GigDE8YkL4J14noNPn/APRbU7/hKtH/AOfmT/wHk/8AiaZ4zZU8Ea6WYKPsEwyTjkocVqXl/Z6dCJr67gtYidoeeQIufTJNAGd/wlWj/wDPzJ/4DSf/ABNNk8XaHDE0st4yRoCzM0EgCj1J21orqVgyhlvbYq0RmBEq4MY6t1+6PXpWV4rniuPAeszwSpLE9hMySRsGVhsPII60ATf8JVo//PzJ/wCA0v8A8TR/wlWj/wDPzJ/4DSf/ABNas9xDbR+ZcTRxR5C7pGCjJOAMn1PFDXEK3CW7TRiZ1LLGWG5gMZIHUgZH50AZX/CVaP8A8/Mn/gNJ/wDE0f8ACVaP/wA/Mn/gNJ/8TWnbXVveRGW1uIp4wxUvE4YZBwRkdxTRfWZtGuxdQfZlzum8wbBg4OW6cHigDO/4SrR/+fmT/wABpP8A4mj/AISrR/8An5k/8BpP/ia2QQRkHINFAGN/wlWj/wDPzJ/4DSf/ABNH/CVaP/z8yf8AgNJ/8TWzRQBjf8JVo/8Az8yf+A0n/wATR/wlWj/8/Mn/AIDSf/E1s0UAY3/CVaP/AM/Mn/gNJ/8AE0f8JVo//PzJ/wCA0n/xNbNFAGN/wlWj/wDPzJ/4DSf/ABNH/CVaP/z8yf8AgNJ/8TWzRQBjf8JVo/8Az8yf+A0n/wATR/wlWj/8/Mn/AIDSf/E1s0UAY3/CVaP/AM/Mn/gNJ/8AE0f8JVo//PzJ/wCA0n/xNbNFAGN/wlWj/wDPzJ/4DSf/ABNH/CVaP/z8yf8AgNJ/8TWzRQBjf8JVo/8Az8yf+A0n/wATWX4j8R6Xc6FcQxXDl3KBQYJAM717lcV1tYfjD/kVrz/tn/6GtAG5RRRQAUUUUAFFFFABRRRQAUUUUAFFFFABRRRQAUUUUAFFFFABRRRQAUUUUAFFFFABRRRQAUUUUAFFFFABRRRQAUUUUAFFFFABRRRQBQ1z/kX9S/69Zf8A0A1HY3ltY+G7K4vLmG3gW3i3SzOEUZUAZJ4qTXP+Rf1L/r1l/wDQDXJ+MdJvNc+GNpYWMLSzyGyOFUMQokjLNg8HABPPpQB1lvrek3a7rbVLKYbWfMdwjfKuNx4PQZGfTIqHV7iG68KahcW00c0MllKySRsGVhsPII4NeZeLPh7rdzqFlDpsomjt9PuGmf7OkMV2fNjYW7hMABguM+3NeiTzG48B3EpsXsC2nPm0dQph+Q/Lgcce1AF+wnhttBtJ7iVIokt4y0kjBVHyjqTVp7mCOWKJ5o1kmz5SFgC+Bk7R3wOeK5PxW0g+Flx5MixymyjCM0ioMnbjliBXmq6zcQ+OIdWnvnu5rGXUJAW1GFrYo0JECwrv4J4U8detAHusF3bXXmfZ7iKbynMcnluG2MOqnHQj0pBe2rQzSrcwmKFmWVxIMRlfvBj2I756V8+6XLqnhzS9Ss11KwxqMcF1cS6bqsZl8wSjzwGYjbIyMcY4+U4OaglnnXw/dWa6hd/ZbqfUZI4YtThE7SSFfJac78MpXdnrzQB9HI6yIrowZGAKspyCPUU6vBLm81GPRbqS38TbHF5bxfZU1RPls1iXf5SrIDnf6EHAOKdYa/rdvr3h6S48RNdRJFGs4lvookVdz5L7ZWUsBsyGBJwMHOaAPeaK8w+FOpalc3+r22oai96AEeOSW7V3Jywb5A7YH3eVO05HFen0AFFFFABRRRQAUUUUAFFFFABRRRQAUUUUAFY3i/8A5ErXv+wdcf8Aotq2axfF/wDyJWvf9g64/wDRbUAbCMrDAYErgEA9OKdXI6doGvRalqsra/PGk00bI/2WE+YBEik4xxyCPwrS/sjWv+hmn/8AASH/AOJoA3KKw/7I1r/oZp//AAEh/wDiaP7I1r/oZp//AAEh/wDiaANyueujql94murG11RrKC3s4JsJAjlmd5gclh6Rr+tS/wBka1/0M0//AICQ/wDxNTaXo89jf3V9dajLez3EUUJLxogVULkYCgd5G/SgCH+ydb/6Gab/AMA4f8KP7J1v/oZpv/AOH/CtyigDD/snW/8AoZpv/AOH/Cj+ydb/AOhmm/8AAOH/AArcooA8t8Y+HNfh0/V7++1WTVrT7NI0SmCIG2+Q5+QjHr86/MM8Ct/4iaJf67aaJb6fGjPHqkUkjyQiZIkAbLMhIDAZ6VseMiB4I14noNPnP/kM0n/CXaL/AM97j/wDm/8AiKAPLtd+GOsWs9pa6Q73cFtZzzzq0YjhvHadZDbEKfkVucAcdM16Nr032j4aajN9jkst+mSH7NIoVof3Z+UgccdKt/8ACX6L/wA97j/wDm/+IrH8WeKdIn8IazFHPPveylVc2koGSh7laALXxCkePwrmOaOJ/tlt80kioMCZS3LED7oJ/CvKbbWb221661Z72W61KLT76EPcajC0JmeVfK8kb+E2gE9OnrmvYZfFGgzLsmeWRQc4exlIz/3xUP8Ab3hj/nl/5TpP/iKAPH9MlvvDOlT6KNTthp73dtdyyaPqqGRkK7JlR2KneWVXIHYnBrPme8/4RC20uS+mMbW9x5VvBqMIxM10zE3A34YGMgjrznvXuH9veGP+eX/lOk/+Io/t7wx/zy/8p0n/AMRQB5Vql/qi6ZJND4plJl1ObzoI9TQslsAfK8tVkU43EE4Yds8DFS2XiDW4fFFo9x4iNxEbJUld72GNI28ggsAJCjNv6g87uhxXqH9veGP+eX/lOk/+Io/t7wx/zy/8p0n/AMRQBzvwk1HULux1KDUb5rto5EMckt0JHYFfmJXcxTkeuD2r0euei8S+HYGLQ74yRglLCUZ/JKl/4S/Rf+e9x/4Bzf8AxFAG5RWH/wAJfov/AD3uP/AOb/4ij/hL9F/573H/AIBzf/EUAblFYf8Awl+i/wDPe4/8A5v/AIij/hL9F/573H/gHN/8RQBuUVh/8Jfov/Pe4/8AAOb/AOIo/wCEv0X/AJ73H/gHN/8AEUAblFYf/CX6L/z3uP8AwDm/+Io/4S/Rf+e9x/4Bzf8AxFAG5RWH/wAJfov/AD3uP/AOb/4ij/hL9F/573H/AIBzf/EUAblFYf8Awl+i/wDPe4/8A5v/AIij/hL9F/573H/gHN/8RQBuVh+MP+RWvP8Atn/6GtH/AAl+i/8APe4/8A5v/iKyPE/ibSrzw9c28M0xkkaNVDWsqjPmL3K4FAHZ0UUUAFFFFABRRRQAUUUUAFFFFABRRRQAUUUUAFFFFABRRRQAUUUUAFFFFABRRRQAUUUUAFFFFABRRRQAUUUUAFFFFABRRRQAUUUUAUNc/wCQBqX/AF6y/wDoJrG0rxZo8ej2KNNcZW3jBxZzH+Ef7FbOuf8AIv6l/wBesv8A6Aado/8AyBLD/r2j/wDQRQBQ/wCEu0b/AJ7XP/gFN/8AEVQ1vxXpEugalGk1xua1lAzZzD+A/wCxXV1na/8A8i5qn/XpL/6AaAMew8T6G2j2cUzzOBBGCrWMzD7o/wBipf7f8M/88j/4Lpf/AIitfTGVNFsmZgALePJJ/wBkVdoA5v8At/wz/wA8j/4Lpf8A4ij+3/DP/PI/+C6X/wCIrpKh+2WvkNP9ph8lWKtJvG0EHaQT0yDx9aAMH+3/AAz/AM8j/wCC6X/4ij+3/DP/ADyP/gul/wDiK6SigDnYvEnh2F98QkjbGMpp8oOP++Km/wCEu0b/AJ7XP/gFN/8AEVuU2SRIo2kkdURAWZmOAAOpJoAxf+Eu0b/ntc/+AU3/AMRR/wAJdo3/AD2uf/AKb/4itmKaKeMSQyJIhyAyMCDg4PP1p9AGH/wl2jf89rn/AMApv/iKP+Eu0b/ntc/+AU3/AMRW5RQBh/8ACXaN/wA9rn/wCm/+Io/4S7Rv+e1z/wCAU3/xFblFAGH/AMJdo3/Pa5/8Apv/AIij/hLtG/57XP8A4BTf/EVuUUAYf/CXaN/z2uf/AACm/wDiKP8AhLtG/wCe1z/4BTf/ABFblFAGH/wl2jf89rn/AMApv/iKP+Eu0b/ntc/+AU3/AMRW5RQBh/8ACXaN/wA9rn/wCm/+IrJ8U+KdJn8Ia1DHLcF3sJ1UGzmAyY27lcCuyrG8X/8AIla9/wBg64/9FtQBsL90fSlpF+6PpS0AFFFFABRRRQAUUUUAFFFFAGJ4x/5EnXf+vCf/ANANbdYnjH/kSdd/68J//QDW3QAVieMv+RK1z/rxm/8AQDW3WJ4y/wCRK1z/AK8Zv/QDQBt0VgeMJpYNBDxvIkRuIVn8qXy5DEXAYI2Rgnp1BOcDmvP7FfFGoJYT2dxqf2MySi2dg0zKwun5kIkUY8vaPm3DGe9AHr9FeW3Gk+K7bTUa1l1MyXEIa9EkzSkYuASEUMCD5ZYYUgkDrmp4NO8Srps1xM2qTyRWDrbxeY0Ry0rAZXexLLGRjLE4756AHpHnRecIfMTzSu8JuG7bnGcelPrzjw7Y6wt9JNqdrqTRRRSxRyAFJCpnjdANzs2MZ6sTgEGtzXbTW38SWa2DTnT7sJ9qZJdoh8pjIMenmcIcdqAOrpjyxxNGskiIZG2IGYDc2CcD1OAT+Bry7S7DxPealDBdrq1vaS3MUsxEjpsws29dxckgkxg42g8YAqxa6HqepHS4b6HWlkjvVe/mkuSFLiOYFoiDlVOVGVwMMBjOaAPTKjluIYSBLNHGSCwDMBkDqfoK8xSPxcl3o5kt9S3W6QJK25n8xMsJC2HCg4K5yGY9QRipGsbywtkhvrC71e6k0YEW1zKXaWbzVMinnoMoSB2GKAPRG1OwSKKVr62WOX/VuZVAf6HPNL/aNj5zw/bbfzUIDp5q7lJOORnjkgfjXmkujXsVpBdWdlqx1AtO6f6HEsPnuyH5o2zsjwBgg9jk56yT2F9Zw66jW94lvLb3b3DXUUe0zvJmPyXUZYEknB/2e9AHpj3EEc8UDzRrLLny42YBnxycDvio0v7OVykd3A7hS5VZASFBwT16AgjPqK5XxDoF/q2paFNHuS6sbWeSO67RXH7rbn2bDg+oJrmLLw5r7Wx1ZdMe21aCxlMcDOMSF55meAn0ZWUg9jtNAHq8ciSxrJG6ujAFWU5BHqDTqzfD8Ett4c0yCeNo5Y7WNXRuqkKMg1pUAFFFFABRRRQAVh+MP+RWvP8Atn/6GtblYfjD/kVrz/tn/wChrQBuUUUUAFFFFABRRRQAUUUUAFFFFABRRRQAUUUUAFFFFABRRRQAUUUUAFFFFABRRRQAUUUUAFFFFABRRRQAUUUUAFFFFABRRRQAUUUUAUNc/wCRf1L/AK9Zf/QDTtH/AOQJYf8AXtH/AOgim65/yL+pf9esv/oBp2j/APIEsP8Ar2j/APQRQBdrO1//AJFzVP8Ar0l/9ANaNZ2v/wDIuap/16S/+gGgDH16wl1P4by2kEUssr2UZWOJirMQFOAcjniuRv7jVPNv4jdag9jp+owWsX2ec+bMJp0kZM5zuRT5eCc/nXpek/8AIHsf+veP/wBBFWBBCF2iJAN2/AUfeznP1zzmgDy17Hxe13Z+WdShtQT9jBDSvEPPYjzj5qjPl7R8+8Y469Y9T0PW2t7i1ex1N0kuZZLVLaTbEpN67s0ozggoVIznj3r1qigDlPEsOpyeF7hNIW8SY3uZQxLSNF5vz7MMDgjOAGBxwMVzsGkeJns/tEk2qNNbwxNaKZDHz9oYkMm9skR7R8xJx15r02igDzZoPEt80di0OqwpD+7mnEu3zP8ASlJKsDkjys8+hxVe50nV9N0+Z531CW0bzftIuLhpAI0vF8vAJOP3OTnuOteo0hAZSrAEEYIPegDB8LgmTW5EObV9SkMHpgKgbHtvD/jmt+kRFRQqKFUdABgUtABRRRQAUUUUAFFFFABRRRQAUUUUAFY3i/8A5ErXv+wdcf8Aotq2axvF/wDyJWvf9g64/wDRbUAbC/dH0paRfuj6UtABRRRQAUUUUAFFFFABRRRQBieMf+RJ13/rwn/9ANbdYnjH/kSdd/68J/8A0A1t0AFYnjL/AJErXP8Arxm/9ANbdYnjL/kStc/68Zv/AEA0AbEsUc8TRyxrJGwwyuMg/UUqIkUapGioijCqowAKdRQAUUUUAFFFFABRTJJoomjWSREMjbEDMBubBOB6nAJ/A0+gApCqlgxUEjocdKjmure2/wBfPFF8pb53C8Dqeew71EupWDrEyXtsyzNsjIlUh29BzyfYUAWqRlVhhlBGQeR3qF7y1jtHu3uYVtowS8zOAigdST0GMHNNl1Gxgx515bx5CsN8qjIY7VPJ7ngepoAs0UxZonlkiSRGkjxvUMCVzyMjtT6ACiiigAooooAKKKKACsPxh/yK15/2z/8AQ1rcrD8Yf8itef8AbP8A9DWgDcooooAKKKKACiiigAooooAKKKKACiiigAooooAKKKKACiiigAooooAKKKKACiiigAooooAKKKKACiiigAooooAKKKKACiiigAooooAoa5/yL+pf9esv/oBp2j/8gSw/69o//QRTdc/5F/Uv+vWX/wBANO0f/kCWH/XtH/6CKALtZ2v/APIuap/16S/+gGtGs7X/APkXNU/69Jf/AEA0AOsJorfQLWaeRIoo7ZGd3YKqgKMkk9BVp7iCO3895o1hwD5jMAuD056VzmuadLq3w5ksYYnlkms4wqI20scKeuR6VzmoWXiG7WXTRY37RQveEyPIDHKrXMbwgEtk4jB69MEUAegrqdg5lCX1sxhTzJAJVOxckbjzwMq3PsfSrKsrqGVgysMgg5BFeTz+E9cjttY1CzsnGoC0aCOJmAF1E7Tb4+vX5kYE9wPU1PeWfir+1JhbW2oRRm3ktx5THbj7OAjBi+0fOOgXIPVjmgD1KivNLrw94jsnupNIn1IzGaWOEzXZdViNoSDhm/57dD1B9BWv4OtNSt0U6iuospuCYBKrIIh5eG3hpXYgtnGT15AAoA7SiuB1Sx8SJfaysC3c1nCjzWmycgyvMVDJwc/uwshA4++ACMVm2ek+KbizmDPqUMltBdfZcyGMOxZDHwXY52lwNzHB6nigD03zovOEPmJ5pXeE3DdtzjOPTmn15nN4fv7wyXVna61bCCym+xrPdnzfN3RlQfmzjIYhWJHX1FV5rPxbcanqCiHUoI7lZY2MchG0+fGUZXLkf6vfjaqgZxyaAPTJr60t9/n3UEWzG/fIF256Zz0zRJfWcUpikuoEkCGQo0gBCDq2PT3rzPWdGvbqa6tIYrwi31JmeS2VZp1iNqI4jiThgcsCTkjnp1qfTdE1C0ubKPUNM8mWKe3u5b4bTFHDHbBHjLk56hhj0OaAPR5bq3gSN5riKNZGCRl3ADsegGepPYU37fZ/altftcH2hiVWLzBvJABIAzngEE/UVxJ0GfWfAPhrT7iGZ0E0Dyc7XijAYq2T0Kjb+IrJg8LeIr/WRc30Agv7Wa5kgvgRsaQLAscmAc7XCNke7D0oA9RhmiuI/MhlSRMkbkYEZBwRkehBH4U+sDwVBe23hS1TUbQ2l20k8kkBYNsLyu2MjrwRW/QAUUUUAFFFFABWN4v/AORK17/sHXH/AKLatmsbxf8A8iVr3/YOuP8A0W1AGwv3R9KWkX7o+lLQAUUUUAFFFFABRRRQAUUUUAYnjH/kSdd/68J//QDW3WJ4x/5EnXf+vCf/ANANbdABWJ4y/wCRK1z/AK8Zv/QDW3WJ4y/5ErXP+vGb/wBANADvE1pd3ulxW9o06s95b+a0EmxhF5q+ZyOg25zXD3tn4ptjZw28GpMtpcSNDIJGkLRi5JAb5wP9UBy4bIOMA816jRQB5jD4e8QRpFdCbVjciGOba94xXzvtPOV3Yx5XGOmPerHhqy8Qx3d8+s/2k6lMTIgZQ8vnZDIxlOQF/uqo28EZr0aigDlNdstak8SWYsGnOn3QQXbLLtEPlMZBj08z7hx261y2mab4nvNShhu01W3s5bmGWfErptws29dxkJIJMYONoPYDFeqUUAeZ22galqJ0yG/t9YWSO9V7+aS6IVmEcwLx4OVU7lGVxwwGOtQpB4uju9HMlvqO62SBJXDs/mJlhJuO8KDgrnKsT1BGK9SooA8xfRrtbVbC/Go3E9xovzfvg8zSeapmCl8rnG3jpjiq0+j61cx3QuNJubpLu3ktdPeSKNZLb94CHlxgKe+4c4UZ5r1YqpYEgEjocdKWgDh5LC4v/Cni+1t4muEurmdLaPj5/kRXx2wZBJ+OaxLzwfqcuoTaVPZvc6Oi2cVvLvGfIFyHZDznMYzz3AXvXqSqqjCgAegFLQByfg+w1ey1HWhq6Et5kUUNzkf6SiJgP7HGMj1zXWUUUAFFFFABRRRQAUUUUAFYfjD/AJFa8/7Z/wDoa1uVh+MP+RWvP+2f/oa0AblFFFABRRRQAUUUUAFFFFABRRRQAUUUUAFFFFABRRRQAUUUUAFFFFABRRRQAUUUUAFFFFABRRRQAUUUUAFFFFABRRRQAUUUUAFFFFAFDXP+Rf1L/r1l/wDQDTtH/wCQJYf9e0f/AKCKbrn/ACL+pf8AXrL/AOgGnaP/AMgSw/69o/8A0EUAXaztf/5FzVP+vSX/ANANaNZ2v/8AIuap/wBekv8A6AaAJdJ/5A9j/wBe8f8A6CKuVT0n/kD2P/XvH/6CKuUAFFFQxXlrPK0UNzDJIudyo4JGCVOQPcEfUEUATUUUUAFFMeaKOSON5UV5SRGrMAXIGSAO/AJ/Cn0AFFQT3lra7vtFzDFtQyN5jhcKDgk57ZI5qNtU09DCGvrVTOMxAzKPMH+zzz+FAFraAxbAyeCcUMoZSrAEEYIPeqq6pp7yvEl9bNIjhGQSqSrE4AIzwc8Y9ama6t0uo7Vp4luJFLJEXAdlHUgdSBkfnQBLRVNNV06RZWTULVhDGJZSsynYhzhm54HB5PoatghgCCCDyCKAFooooAKKKKACiiigArG8X/8AIla9/wBg64/9FtWzWN4v/wCRK17/ALB1x/6LagDYX7o+lLSL90fSloAKKKKACiiigAooooAKKKKAMTxj/wAiTrv/AF4T/wDoBrbrE8Y/8iTrv/XhP/6Aa26ACsTxl/yJWuf9eM3/AKAa26xPGX/Ila5/14zf+gGgDbpkU0U6lopEkVWKEowIDA4I+oIINY/iuK8m0QraJcOPPiM8ds22V4Q43qhyOcZ7jjIrzy20TxVAbRLePULW3MszwK37x4na6d90hEqjmMrywfjIxmgD16mSTRRGMSSIhkbYgZgNzYJwPU4BP4V5hDp3iFJJxc22rz6ebtXuQspSeVf3nyr+8IIBMZLIUyB04NS3ula7b2t5qG7UkZJlKiW73+XAtkQTwcZ808nGSRn3oA9KkmjhXdLIiLycswA4GT+gJpyOsiK6MGVhkMDkEeteTR6Pq99Z2d3FY6r5EZjeJbi4LSiZraVXk+990u0X6nGKnutK8USQ3McKaquomKUNOJ8RNEYMRxoN2A4fHOM5VjnmgD1OiuZ0bTbjTtSuoJEv5LVb0tZyPcFwqGCPduJbJG/fgHODWNqmn+JEv9YSBLqayiR5rMpOQZWm2hk4IP7vEhAyPvAA+gB39M86Lz/I81PO27/L3DdtzjOOuM968utdH8VT2l0SdSiktra5FoDKYw5aQFRguxzsLAbidp78VPc+HdRunmvbC01i1MNhJ9hWa7PmCTzFZQfmyRwSFYngn1wAD02oXu7eMyh54lMQBk3OBsB6E+mcV5pc2Piq51bUwkGowRXQlQmKQgKRMhQq5kI/1e7G1Vx05PNX77Q2v9F8U6YLVri8jvY5LdGcliojiEbZJ5xhup6hqAO6a/s0uxaNdwLckZEJkAcj/d60Q39nc7PIu4Jd5YLskDbiOoGPTvXB+I9G1i413UP7KgvVmvBteWXyzbGLyCuFP31fdgfiT0qO0sLhdQtJ4tOl03ztQtBDbuqqwEUTiZtqkgAqSue+B6igD0Br6zSSaN7qBXgQSTKZADGpzhmHYcHk+lIuo2LJI63luVicRyESrhGOMKeeCcjj3FcH4q8OavPqXiDVtLtWe6e1it449wAuoijCROvBBKsCe4x3NVJ/C+tWzXN1ZWbMbzU4hdwlgN8SmIrMOeqlWBHcH2FAHqFFFFABRRRQAVh+MP8AkVrz/tn/AOhrW5WH4w/5Fa8/7Z/+hrQBuUUUUAFFFFABRRRQAUUUUAFFFFABRRRQAUUUUAFFFFABRRRQAUUUUAFFFFABRRRQAUUUUAFFFFABRRRQAUUUUAFFFFABRRRQAUUUUAUNc/5F/Uv+vWX/ANANO0f/AJAlh/17R/8AoIpuuf8AIv6l/wBesv8A6Aado/8AyBLD/r2j/wDQRQBdrO1//kXNU/69Jf8A0A1o1na//wAi5qn/AF6S/wDoBoAy9Wh1Of4fmLR2Zb5rSMRlD82MLuxyOcZxyPqK5IeH/EV3pcoMmqIEguGs0WVoGRy0ewYMjns5G5j1+gr0bSf+QPY/9e8f/oIq5QB5brOleJreCaz0+DUHiiuJpLSUTNIw+WIqP9YvfzMFtwHI28itjRNN1SPVLq71GzvCspwhWQB/+PyV1zhvuhGUkenHtXdUUAcbrVhr58SSfYfPk06WH7USs+zE0aMqxD0DsY2z0+Q+tc/o2keJrmeG3uhqMFqLpZwzSNGAPs7jBzIzEeaFyM89cAV6lRQB5naeHL/UTpSXdnrEIikLXrz3nLS/Z5FZ0IbIUuR0IB44FU57Txk7Wbm11AXKWSRSsr53k2zBiT5gUHzSONpORndXrFFAHms9hd6d9rtBpkuq3YtLJoEuG805DsXdtzDftc7tufTpTE0K+s5rCbTbPV1vCqgSTRwiHJnaSXzE52D52I2noRjkV6ZtG4NgZAwDS0AeXS6bqNnp+rW629/FbSRkAXfllmu3uAUMTJyV5J59u+a6HxJoN/qPiOx1CzXbc2NlK1tOThRPvjIQ98ModT7GuvKhsZAODkZpaAPHl8I+IF8P6hfW+mtFqr6alt9maRf36OjiSLOcZUlWB9R7mvXbdSltEjDBVACPwqSigAooooAKKKKACiiigArG8X/8iVr3/YOuP/RbVs1jeL/+RK17/sHXH/otqANhfuj6UtIv3R9KWgAooooAKKKKACiiigAooooAxPGP/Ik67/14T/8AoBrbrE8Y/wDIk67/ANeE/wD6Aa26ACsTxl/yJWuf9eM3/oBrbrE8Zf8AIla5/wBeM3/oBoA26KKQOpcoGBYAErnkA9P5GgBaQgMpVgCDwQe9AdS5QMCwAJXPIB6fyNLQAgAAAAwB0ApaKKACiioYby2uJHjhuIpHjOHVHBK8kc/iCPwNAE1FFFABSbRuLYGTwTS0UAFIVBYMQMjocdKWigAooooAKKKKACiiigArD8Yf8itef9s//Q1rcrD8Yf8AIrXn/bP/ANDWgDcooooAKKKKACiiigAooooAKKKKACiiigAooooAKKKKACiiigAooooAKKKKACiiigAooooAKKKKACiiigAooooAKKKKACiiigAooooAoa5/yL+pf9esv/oBp2j/APIEsP8Ar2j/APQRTdc/5F/Uv+vWX/0A07R/+QJYf9e0f/oIoAu1na//AMi5qn/XpL/6Aa0aztf/AORc1T/r0l/9ANAEuk/8gex/694//QRVyud1GG9uPAixaf5n2hraLCxNtdl+XcqnsSuQD71yF5pPiOTUbI2EOp2tgAPs0cj+a9u3m5YufNUAFcY3eZxx1oA9Kt721uy4trmGYpjcI5A23ORzjp0P5GpEmikkkjSVGeMgOqsCVJGQCO3FeTPpWo6dqdpHe6fqD291cENBZzBXmCpcNjhhwCyHqKuReGvE8ds18rXCa2xgTzRcfJgW+1yRnB+bGSRnIyKAPUKRmVEZ3YKqjJJOABXm1j4f1S9ntong1a10kygywT3Z8zcLeQMxYOTtMhToeSM4Aqpa6P4xk1C1N8bst9lhBONy7RBiRGbzQuS+c/ITnBB4oA9Nhv7O4FuYLuCUXCGSApIG81RjLLg/MORyPUVYrydvC3iHSl06LTrSVrS3sGlRY5QrwzMYTJCOehKOR2ySPSrl5o3iHWRqFy8Op2pb7RJaRi62MrF4/LOFbGdocgHgZNAHpPnRef5HmJ523f5e4btucZx6Zp9eVaj4b1iLULhYrPVZURZ4tOmhu/8AUszRtGzkvkqDvPOe/HIpJdE8Xz6hqSyTX26SSQNJCdiyRGVNm1/N4ITPRFIwck55APVqKw7jSmm0bU9PsjdWsjJshmeYn5gg2spyTjIGemcH1riNUsvF9zp9tdfYrxL+cyXTJFNv8h9yhIwBIqj5Fzk7hkkY5zQB6nTIpop1LQypIoYqSjAgEHBHHcEYrzu40TVldbie31e6Se5u3eGC82Ojlh9nbO4BUC7uB0LAkGopfD+uadBPcWNtePNcve/aIxdHBVplaMhQw527iNuCckZGaAPTOlQxXdtP5XlXET+anmR7XB3px8w9RyOfcV5lFoniObR70XKagrW9herbIZCgdmI8v5Q7EnaWABJx610o0t5tdstZ0aGFPN0SaGO6YZQMTCYgRnJGAx49DQB04vLVp/JW4iMu4rsDjdkDJGPXBBpH1Cyjlnie7t1kt4xLMjSAGNOfmYZ4HB5PHBrz3TNE1bSbmC2vEhE0utx3EUkMjM0oER852JHfn8T6YqfxZ4a1W7vtf1TS7bfevZLbwKXCi5jZHWSM88YJVhnuB70Adymp2EiSOl9bMscgidhKpCucYU88E5HHuKtV5d/wimtWha6tLQk3eqxfbYC6jdErxskw5xldrAjqQfYV6jQAVjeL/wDkSte/7B1x/wCi2rZrG8X/APIla9/2Drj/ANFtQBsL90fSlpF+6PpS0AFFFFABRRRQAUUUUAFFFFAGJ4x/5EnXf+vCf/0A1t1ieMf+RJ13/rwn/wDQDW3QAVieMv8AkStc/wCvGb/0A1t1keKbea78J6vbW8bSTS2cqRoo5ZipAAoAi8XQXVz4dnis/tPml4yfswDOVDgkY3LkY6gMDjODXCnRdejVpjpd4Jrq2tI5nWd5Nqo024EeYrE8xfLu79Tg59WooA8hOh+JxBFcvaX32mW2s0v2yXaVYzMGXasqknJiPDDIzyeQe88O22oW+lQR3gum1AWSq007DbnLYBUM3zDjJ57cmuiooA8q0Xw/4muJbWHVH1EQG4j+3De0QchJd7BvNYlSSg+UKDxxxxatLXxXbR21pLa6hK0jWRM3nqVjSN28wMd2cldueuc16XRQB5rZeGNbtJrS5V9SM8YsHYSXjMu8ykXBILYPyYyOmOnNXvCaOb3QwoZZbfTJo71T1EnmqMN771k/Wu8poRVJKqAT1IHWgB1FFFABRRRQAUUUUAFFFFABRRRQAUUUUAFYfjD/AJFa8/7Z/wDoa1uVh+MP+RWvP+2f/oa0AblFFFABRRRQAUUUUAFFFFABRRRQAUUUUAFFFFABRRRQAUUUUAFFFFABRRRQAUUUUAFFFFABRRRQAUUUUAFFFFABRRRQAUUUUAFFFFAFDXP+Rf1L/r1l/wDQDTtH/wCQJYf9e0f/AKCKbrYzoGogdTay/wDoJrkdL+KPg2HSbKJ9Zw6QIrD7LNwQo/2KAO9qjrUUk+hahDEheSS2kVFHUkqQBXN/8LV8Ff8AQa/8lZv/AIij/havgr/oNf8AkrN/8RQB1GmxvFpdpHIpV0hRWB7EKKtVxv8AwtXwV/0Gv/JWb/4ij/havgr/AKDX/krN/wDEUAdiVUkEgEr0JHSlrjf+Fq+Cv+g1/wCSs3/xFH/C1fBX/Qa/8lZv/iKAOyorjf8Ahavgr/oNf+Ss3/xFH/C1fBX/AEGv/JWb/wCIoA7KiuN/4Wr4K/6DX/krN/8AEUf8LV8Ff9Br/wAlZv8A4igDsqK43/havgr/AKDX/krN/wDEUf8AC1fBX/Qa/wDJWb/4igDsqK43/havgr/oNf8AkrN/8RR/wtXwV/0Gv/JWb/4igDsqK43/AIWr4K/6DX/krN/8RR/wtXwV/wBBr/yVm/8AiKAOypAAoAAAA7CuO/4Wr4K/6DX/AJKzf/EUf8LV8Ff9Br/yVm/+IoA7HAJBwMjoaWuN/wCFq+Cv+g1/5Kzf/EUf8LV8Ff8AQa/8lZv/AIigDsqK43/havgr/oNf+Ss3/wARR/wtXwV/0Gv/ACVm/wDiKAOyrG8X/wDIla9/2Drj/wBFtWN/wtXwV/0Gv/JWb/4isvxL8TPCF74V1e1t9X3zz2U0ca/ZpRuZkIAyUx1NAHoq/dH0paRfuj6UtABRRRQAUUUUAFFFFABRRRQBj+LIpJ/B+tRQxvLK9jMqJGpZmJQ4AA5J9qZ/wlemf88tU/8ABTdf/G626KAMT/hK9M/55ap/4Kbr/wCN0f8ACV6Z/wA8tU/8FN1/8brbooAxP+Er0z/nlqn/AIKbr/43R/wlemf88tU/8FN1/wDG626KAMT/AISvTP8Anlqn/gpuv/jdH/CV6Z/zy1T/AMFN1/8AG626KAMT/hK9M/55ap/4Kbr/AON0f8JXpn/PLVP/AAU3X/xutuigDE/4SvTP+eWqf+Cm6/8AjdH/AAlemf8APLVP/BTdf/G626KAMT/hK9M/55ap/wCCm6/+N0f8JXpn/PLVP/BTdf8AxutuigDE/wCEr0z/AJ5ap/4Kbr/43R/wlemf88tU/wDBTdf/AButuigDE/4SvTP+eWqf+Cm6/wDjdH/CV6Z/zy1T/wAFN1/8brbooAxP+Er0z/nlqn/gpuv/AI3R/wAJXpn/ADy1T/wU3X/xutuigDE/4SvTP+eWqf8Agpuv/jdH/CV6Z/zy1T/wU3X/AMbrbooAxP8AhK9M/wCeWqf+Cm6/+N0f8JXpn/PLVP8AwU3X/wAbrbooAxP+Er0z/nlqn/gpuv8A43WX4i1211PQ57O0t9TeeVo1RTplyoJ3r3MYA+prr6KACiiigAooooAKKKKACiiigAooooAKKKKAP//Z;strokeColor=none;labelBackgroundColor=none;rounded=0;html=1;whiteSpace=wrap;" parent="1" vertex="1">
          <mxGeometry width="1060" height="995" as="geometry" />
        </mxCell>
      </root>
    </mxGraphModel>
  </diagram>
</mxfile>
